Dactyl Sans Italic.sfdir
StartChar: !
Encoding: 33 33 0
Width: 133
InSpiro: 1
        Flags: H
        LayerCount: 2
        Back
        SplineSet
120 634 m 0
124 634 l 0
64 230 l 0
60 230 l 0
120 634 l 0
Z
32 25 m 0
32 25 32 25 33 25 c 0
33 25 33 25 34 26 c 0
34 26 35 27 36 28 c 0
36 28 37 29 37 29 c 0
38 30 38 30 38 30 c 0
38 31 39 31 39 32 c 0
38 32 38 32 38 33 c 0
38 33 38 33 37 34 c 0
37 34 36 35 36 36 c 0
35 36 35 37 34 37 c 0
34 38 33 38 33 39 c 0
32 39 31 39 31 38 c 0
31 38 30 38 30 38 c 0
29 37 28 36 28 36 c 0
27 35 26 34 26 34 c 0
25 33 25 33 25 33 c 0
25 32 24 32 25 32 c 0
25 31 25 31 25 30 c 0
25 30 25 30 26 29 c 0
26 29 27 28 28 28 c 0
28 27 29 26 29 26 c 0
30 25 30 25 30 25 c 0
31 25 31 24 32 25 c 0
Z
Spiro
120 634 v
124 634 v
64 230 v
60 230 v
32 25 c
36 28 c
39 32 c
36 36 c
33 39 c
28 36 c
25 32 c
28 28 c
0 0 z
EndSpiro
EndSplineSet
        Fore
        SplineSet
98 660 m 0
160 660 l 0
91 200 l 0
29 200 l 0
98 660 l 0
Z
30 -5 m 0
38 -4 47 0 54 5 c 0
61 11 67 20 69 30 c 0
70 38 67 47 62 54 c 0
56 60 47 64 39 65 c 0
29 65 20 60 13 54 c 0
6 47 0 39 -1 30 c 0
-1 25 -1 21 0 16 c 0
0 12 2 8 5 5 c 0
7 1 11 -1 16 -2 c 0
20 -4 25 -5 30 -5 c 0
Z
Spiro
98 660 v
160 660 v
91 200 v
29 200 v
30 -5 c
54 5 c
69 30 c
62 54 c
39 65 c
13 54 c
-1 30 c
5 5 c
0 0 z
EndSpiro
EndSplineSet
        EndChar
StartChar: "
Encoding: 34 34 0
Width: 283
InSpiro: 1
        Flags: H
        LayerCount: 2
        Back
        SplineSet
120 634 m 0
124 634 l 0
101 480 l 0
97 480 l 0
120 634 l 0
Z
269 634 m 0
274 634 l 0
251 480 l 0
246 480 l 0
269 634 l 0
Z
Spiro
120 634 v
124 634 v
101 480 v
97 480 v
269 634 v
274 634 v
251 480 v
246 480 v
0 0 z
EndSpiro
EndSplineSet
        Fore
        SplineSet
98 660 m 0
160 660 l 0
128 450 l 0
66 450 l 0
98 660 l 0
Z
247 660 m 0
310 660 l 0
278 450 l 0
215 450 l 0
247 660 l 0
Z
Spiro
98 660 v
160 660 v
128 450 v
66 450 v
247 660 v
310 660 v
278 450 v
215 450 v
0 0 z
EndSpiro
EndSplineSet
        EndChar
StartChar: #
Encoding: 35 35 0
Width: 433
InSpiro: 1
        Flags: H
        LayerCount: 2
        Back
        SplineSet
90 430 m 0
90 434 l 0
394 434 l 0
394 430 l 0
90 430 l 0
Z
60 230 m 0
60 234 l 0
364 234 l 0
364 230 l 0
60 230 l 0
Z
344 634 m 0
349 634 l 0
259 30 l 0
254 30 l 0
344 634 l 0
Z
194 634 m 0
199 634 l 0
109 30 l 0
104 30 l 0
194 634 l 0
Z
Spiro
90 430 v
90 434 v
394 434 v
394 430 v
60 230 v
60 234 v
364 234 v
364 230 v
344 634 v
349 634 v
259 30 v
254 30 v
194 634 v
199 634 v
109 30 v
104 30 v
0 0 z
EndSpiro
EndSplineSet
        Fore
        SplineSet
59 400 m 0
68 460 l 0
430 460 l 0
421 400 l 0
59 400 l 0
Z
29 200 m 0
38 260 l 0
400 260 l 0
391 200 l 0
29 200 l 0
Z
322 660 m 0
385 660 l 0
286 0 l 0
223 0 l 0
322 660 l 0
Z
172 660 m 0
235 660 l 0
136 0 l 0
73 0 l 0
172 660 l 0
Z
Spiro
59 400 v
68 460 v
430 460 v
421 400 v
29 200 v
38 260 v
400 260 v
391 200 v
322 660 v
385 660 v
286 0 v
223 0 v
172 660 v
235 660 v
136 0 v
73 0 v
0 0 z
EndSpiro
EndSplineSet
        EndChar
StartChar: %
Encoding: 37 37 0
Width: 433
InSpiro: 1
        Flags: H
        LayerCount: 2
        Back
        SplineSet
419 634 m 0
424 634 l 0
34 30 l 0
30 30 l 0
419 634 l 0
Z
102 510 m 0
94 522 91 536 92 551 c 0
94 565 99 578 107 591 c 0
115 603 125 614 138 622 c 0
151 630 166 634 182 634 c 0
195 633 208 629 219 621 c 0
230 613 239 602 244 590 c 0
248 576 249 561 245 547 c 0
241 533 234 520 225 510 c 0
216 500 206 492 194 487 c 0
183 481 170 478 158 479 c 0
146 479 135 482 126 487 c 0
116 492 107 500 102 510 c 0
Z
222 513 m 0
230 523 237 535 241 548 c 0
244 562 243 576 239 589 c 0
234 600 226 610 216 618 c 0
205 625 193 629 181 630 c 0
166 630 151 626 139 619 c 0
126 612 116 601 109 589 c 0
102 577 97 564 96 551 c 0
95 538 98 524 105 513 c 0
110 503 118 496 127 491 c 0
136 486 147 483 158 483 c 0
170 482 182 485 193 490 c 0
204 496 214 503 222 513 c 0
Z
351 153 m 0
358 140 361 126 360 111 c 0
359 97 353 83 346 72 c 0
337 59 326 48 313 41 c 0
300 33 285 29 271 30 c 0
257 30 244 34 233 41 c 0
221 48 212 59 208 72 c 0
202 85 202 101 206 115 c 0
210 129 217 142 228 153 c 0
244 170 268 182 293 183 c 0
304 183 315 180 325 175 c 0
336 170 344 162 351 153 c 0
Z
231 150 m 0
221 139 214 127 210 114 c 0
206 100 206 85 212 73 c 0
216 61 225 51 235 44 c 0
246 37 259 34 272 34 c 0
286 33 299 37 312 45 c 0
324 52 334 62 342 74 c 0
349 85 354 97 356 111 c 0
357 124 354 138 348 150 c 0
342 159 334 166 324 171 c 0
314 176 303 179 293 179 c 0
269 178 246 167 231 150 c 0
Z
Spiro
419 634 v
424 634 v
34 30 v
30 30 v
102 510 c
107 591 c
182 634 c
244 590 c
225 510 c
158 479 c
222 513 c
239 589 c
181 630 c
109 589 c
105 513 c
158 483 c
351 153 c
346 72 c
271 30 c
208 72 c
228 153 c
293 183 c
231 150 c
212 73 c
272 34 c
342 74 c
348 150 c
293 179 c
0 0 z
EndSpiro
EndSplineSet
        Fore
        SplineSet
397 660 m 0
460 660 l 0
61 0 l 0
-1 0 l 0
397 660 l 0
Z
77 491 m 0
67 507 63 527 65 547 c 0
67 566 74 585 85 602 c 0
96 619 111 634 129 644 c 0
147 655 168 660 189 660 c 0
207 659 225 653 240 643 c 0
255 632 267 618 274 601 c 0
280 582 281 561 276 542 c 0
271 523 261 505 248 491 c 0
236 477 222 466 206 458 c 0
191 451 173 446 156 447 c 0
140 447 124 451 110 458 c 0
96 466 84 477 77 491 c 0
Z
203 528 m 0
208 534 213 541 215 549 c 0
218 558 217 567 215 575 c 0
212 582 207 588 200 592 c 0
194 597 186 599 179 600 c 0
170 600 161 597 153 593 c 0
145 588 139 581 135 574 c 0
130 567 128 559 128 551 c 0
127 542 129 534 134 528 c 0
137 522 142 518 147 515 c 0
152 512 158 511 165 511 c 0
172 510 179 512 185 515 c 0
192 518 198 522 203 528 c 0
Z
380 168 m 0
390 151 393 130 391 111 c 0
389 91 381 73 371 57 c 0
359 40 344 25 327 15 c 0
309 5 289 0 269 0 c 0
250 0 232 5 217 15 c 0
201 26 189 40 183 58 c 0
175 76 175 97 180 116 c 0
185 135 195 153 209 168 c 0
232 193 265 211 300 211 c 0
315 210 331 207 345 200 c 0
359 192 371 181 380 168 c 0
Z
254 131 m 0
247 124 243 117 240 109 c 0
238 100 238 91 242 84 c 0
244 76 250 70 256 66 c 0
263 62 271 60 279 60 c 0
287 59 295 62 303 66 c 0
310 70 316 76 321 84 c 0
325 90 328 99 329 107 c 0
329 115 327 124 323 131 c 0
319 136 314 140 308 142 c 0
303 145 297 146 291 147 c 0
277 147 263 140 254 131 c 0
Z
Spiro
397 660 v
460 660 v
61 0 v
-1 0 v
77 491 c
85 602 c
189 660 c
274 601 c
248 491 c
156 447 c
203 528 c
215 575 c
179 600 c
135 574 c
134 528 c
165 511 c
380 168 c
371 57 c
269 0 c
183 58 c
209 168 c
300 211 c
254 131 c
242 84 c
279 60 c
321 84 c
323 131 c
291 147 c
0 0 z
EndSpiro
EndSplineSet
        EndChar
StartChar: )
Encoding: 41 41 0
Width: 386
InSpiro: 1
        Flags: H
        LayerCount: 2
        Back
        SplineSet
163 632 m 0
163 636 l 0
205 600 238 553 257 502 c 0
276 447 281 388 273 332 c 0
263 270 240 212 206 161 c 0
171 108 125 62 73 28 c 0
73 32 l 0
124 66 169 111 203 164 c 0
236 214 259 272 268 332 c 0
276 387 271 445 253 499 c 0
234 550 203 596 163 632 c 0
Z
Spiro
163 632 v
163 636 v
257 502 c
273 332 c
206 161 c
73 28 v
73 32 v
203 164 c
268 332 c
253 499 c
0 0 z
EndSpiro
EndSplineSet
        Fore
        SplineSet
195 630 m 0
204 690 l 0
261 654 308 600 336 539 c 0
365 474 373 400 363 330 c 0
351 253 319 181 274 120 c 0
227 57 166 5 97 -30 c 0
105 30 l 0
156 64 201 109 235 162 c 0
268 212 291 270 300 330 c 0
308 385 303 443 285 497 c 0
266 548 235 594 195 630 c 0
Z
Spiro
195 630 v
204 690 v
336 539 c
363 330 c
274 120 c
97 -30 v
105 30 v
235 162 c
300 330 c
285 497 c
0 0 z
EndSpiro
EndSplineSet
        EndChar
StartChar: *
Encoding: 42 42 0
Width: 373
InSpiro: 1
        Flags: H
        LayerCount: 2
        Back
        SplineSet
90 430 m 0
90 434 l 0
334 434 l 0
334 430 l 0
90 430 l 0
Z
168 563 m 0
173 563 l 0
266 301 l 0
261 301 l 0
168 563 l 0
Z
300 563 m 0
305 563 l 0
134 301 l 0
129 301 l 0
300 563 l 0
Z
Spiro
90 430 v
90 434 v
334 434 v
334 430 v
168 563 v
173 563 v
266 301 v
261 301 v
300 563 v
305 563 v
134 301 v
129 301 v
0 0 z
EndSpiro
EndSplineSet
        Fore
        SplineSet
59 400 m 0
68 460 l 0
370 460 l 0
361 400 l 0
59 400 l 0
Z
146 589 m 0
209 589 l 0
293 271 l 0
230 271 l 0
146 589 l 0
Z
278 589 m 0
341 589 l 0
161 271 l 0
98 271 l 0
278 589 l 0
Z
Spiro
59 400 v
68 460 v
370 460 v
361 400 v
146 589 v
209 589 v
293 271 v
230 271 v
278 589 v
341 589 v
161 271 v
98 271 v
0 0 z
EndSpiro
EndSplineSet
        EndChar
StartChar: ,
Encoding: 44 44 0
Width: 283
InSpiro: 1
        Flags: H
        LayerCount: 2
        Back
        SplineSet
179 34 m 0
184 34 l 0
182 28 l 0
177 28 l 0
179 34 l 0
Z
Spiro
179 34 v
184 34 v
182 28 v
177 28 v
0 0 z
EndSpiro
EndSplineSet
        Fore
        SplineSet
157 60 m 0
220 60 l 0
177 -30 l 0
114 -30 l 0
157 60 l 0
Z
Spiro
157 60 v
220 60 v
177 -30 v
114 -30 v
0 0 z
EndSpiro
EndSplineSet
        EndChar
StartChar: -
Encoding: 45 45 0
Width: 373
InSpiro: 1
        Flags: H
        LayerCount: 2
        Back
        SplineSet
75 330 m 0
75 334 l 0
319 334 l 0
319 330 l 0
75 330 l 0
Z
Spiro
75 330 v
75 334 v
319 334 v
319 330 v
0 0 z
EndSpiro
EndSplineSet
        Fore
        SplineSet
44 300 m 0
53 360 l 0
355 360 l 0
346 300 l 0
44 300 l 0
Z
Spiro
44 300 v
53 360 v
355 360 v
346 300 v
0 0 z
EndSpiro
EndSplineSet
        EndChar
StartChar: .
Encoding: 46 46 0
Width: 283
InSpiro: 1
        Flags: H
        LayerCount: 2
        Back
        SplineSet
182 25 m 0
182 25 183 25 184 26 c 0
184 26 185 27 186 28 c 0
186 28 187 29 187 29 c 0
188 30 188 30 188 30 c 0
188 31 189 31 189 32 c 0
188 32 188 32 188 33 c 0
188 33 188 33 187 34 c 0
187 34 186 35 186 36 c 0
185 36 185 37 184 37 c 0
184 38 183 38 183 39 c 0
182 39 181 39 181 39 c 0
180 39 180 38 179 38 c 0
178 37 177 36 177 36 c 0
176 35 176 34 175 34 c 0
175 33 174 32 175 32 c 0
175 31 175 30 175 29 c 0
176 29 176 28 177 28 c 0
177 27 178 26 179 25 c 0
179 25 180 25 180 25 c 0
180 24 181 24 182 25 c 0
Z
Spiro
182 25 c
186 28 c
189 32 c
186 36 c
183 39 c
177 36 c
175 32 c
177 28 c
0 0 z
EndSpiro
EndSplineSet
        Fore
        SplineSet
180 -5 m 0
188 -4 197 0 204 5 c 0
211 11 217 20 219 30 c 0
220 38 217 47 212 54 c 0
206 60 197 64 189 65 c 0
179 65 170 60 163 54 c 0
156 47 150 39 149 30 c 0
148 25 148 21 149 16 c 0
150 12 152 8 155 5 c 0
157 1 161 -1 166 -2 c 0
170 -4 175 -5 180 -5 c 0
Z
Spiro
180 -5 c
204 5 c
219 30 c
212 54 c
189 65 c
163 54 c
149 30 c
155 5 c
0 0 z
EndSpiro
EndSplineSet
        EndChar
StartChar: /
Encoding: 47 47 0
Width: 536
InSpiro: 1
        Flags: H
        LayerCount: 2
        Back
        SplineSet
463 636 m 0
468 636 l 0
78 28 l 0
73 28 l 0
463 636 l 0
Z
Spiro
463 636 v
468 636 v
78 28 v
73 28 v
0 0 z
EndSpiro
EndSplineSet
        Fore
        SplineSet
504 690 m 0
567 690 l 0
160 -30 l 0
97 -30 l 0
504 690 l 0
Z
Spiro
504 690 v
567 690 v
160 -30 v
97 -30 v
0 0 z
EndSpiro
EndSplineSet
        EndChar
StartChar: 0
Encoding: 48 48 0
Width: 433
InSpiro: 1
        Flags: H
        LayerCount: 2
        Back
        SplineSet
79 332 m 0
67 270 51 207 66 147 c 0
72 118 85 92 105 71 c 0
125 50 153 36 182 34 c 0
215 31 248 44 274 65 c 0
299 87 317 116 331 147 c 0
355 205 362 269 374 332 c 0
384 392 399 455 386 516 c 0
379 543 366 570 347 591 c 0
327 612 300 627 272 630 c 0
238 633 204 620 179 598 c 0
153 577 135 547 122 517 c 0
97 458 90 394 79 332 c 0
Z
271 634 m 0
300 631 328 617 348 595 c 0
369 574 382 547 390 519 c 0
405 457 390 393 379 331 c 0
367 267 359 202 333 143 c 0
319 112 300 83 274 61 c 0
248 40 214 27 181 30 c 0
151 32 124 46 103 67 c 0
83 88 69 115 63 144 c 0
48 205 63 269 75 331 c 0
86 394 93 458 118 518 c 0
131 549 150 579 176 601 c 0
202 623 236 636 271 634 c 0
Z
419 634 m 0
424 634 l 0
34 30 l 0
30 30 l 0
419 634 l 0
Z
Spiro
79 332 c
66 147 c
182 34 c
331 147 c
374 332 c
386 516 c
272 630 c
122 517 c
271 634 c
390 519 c
379 331 c
333 143 c
181 30 c
63 144 c
75 331 c
118 518 c
419 634 v
424 634 v
34 30 v
30 30 v
0 0 z
EndSpiro
EndSplineSet
        Fore
        SplineSet
110 330 m 0
99 274 81 219 91 164 c 0
95 138 105 114 122 94 c 0
139 75 163 62 189 60 c 0
218 57 247 70 269 90 c 0
291 110 306 137 316 165 c 0
334 217 336 274 347 330 c 0
356 384 374 439 366 494 c 0
362 519 352 544 335 563 c 0
319 583 295 597 270 600 c 0
255 601 239 599 225 594 c 0
211 588 199 580 187 570 c 0
165 550 150 523 141 495 c 0
122 442 120 385 110 330 c 0
Z
278 660 m 0
310 657 341 642 365 619 c 0
388 597 405 568 415 537 c 0
435 469 422 397 410 329 c 0
397 257 385 185 353 121 c 0
336 87 313 56 283 33 c 0
253 10 216 -2 179 0 c 0
146 2 115 17 91 39 c 0
68 61 51 90 42 122 c 0
22 188 35 260 48 329 c 0
60 399 71 471 103 536 c 0
119 570 142 602 172 625 c 0
202 648 240 662 278 660 c 0
Z
397 660 m 0
460 660 l 0
61 0 l 0
-1 0 l 0
397 660 l 0
Z
Spiro
110 330 c
91 164 c
189 60 c
316 165 c
347 330 c
366 494 c
270 600 c
141 495 c
278 660 c
415 537 c
410 329 c
353 121 c
179 0 c
42 122 c
48 329 c
103 536 c
397 660 v
460 660 v
61 0 v
-1 0 v
0 0 z
EndSpiro
EndSplineSet
        EndChar
StartChar: 2
Encoding: 50 50 0
Width: 433
InSpiro: 1
        Flags: H
        LayerCount: 2
        Back
        SplineSet
109 530 m 0
105 530 l 0
120 560 144 587 174 606 c 0
203 624 237 634 272 633 c 0
308 631 345 614 369 586 c 0
392 557 402 519 401 482 c 0
397 423 367 370 331 325 c 0
293 278 250 237 207 196 c 0
36 33 l 0
334 34 l 0
334 30 l 0
30 30 l 0
30 30 l 0
205 199 l 0
247 239 289 280 326 326 c 0
362 370 393 423 396 481 c 0
397 517 387 554 364 583 c 0
341 610 306 627 271 630 c 0
237 632 204 621 176 604 c 0
147 585 124 560 109 530 c 0
Z
Spiro
109 530 v
105 530 v
174 606 c
272 633 c
369 586 c
401 482 c
331 325 c
207 196 [
36 33 v
334 34 v
334 30 v
30 30 v
30 30 v
205 199 ]
326 326 c
396 481 c
364 583 c
271 630 c
176 604 c
0 0 z
EndSpiro
EndSplineSet
        Fore
        SplineSet
136 500 m 0
74 500 l 0
86 545 113 585 150 615 c 0
186 643 232 661 279 659 c 0
322 656 365 637 394 604 c 0
422 570 435 525 433 482 c 0
429 419 397 362 359 313 c 0
320 262 275 218 229 175 c 0
106 59 l 0
370 60 l 0
361 0 l 0
-1 0 l 0
-1 0 l 0
188 216 l 0
223 256 260 296 295 337 c 0
312 357 329 378 342 401 c 0
356 424 366 450 369 477 c 0
371 506 364 538 346 562 c 0
327 585 297 598 268 600 c 0
238 601 208 590 185 572 c 0
161 553 144 528 136 500 c 0
Z
Spiro
136 500 v
74 500 v
150 615 c
279 659 c
394 604 c
433 482 c
359 313 c
229 175 [
106 59 v
370 60 v
361 0 v
-1 0 v
-1 0 v
188 216 ]
295 337 c
369 477 c
346 562 c
268 600 c
185 572 c
0 0 z
EndSpiro
EndSplineSet
        EndChar
StartChar: 4
Encoding: 52 52 0
Width: 433
InSpiro: 1
        Flags: H
        LayerCount: 2
        Back
        SplineSet
274 30 m 0
269 30 l 0
358 624 l 0
58 184 l 0
357 184 l 0
356 180 l 0
52 180 l 0
52 180 l 0
359 634 l 0
364 634 l 0
274 30 l 0
Z
Spiro
274 30 v
269 30 v
358 624 v
58 184 v
357 184 v
356 180 v
52 180 v
52 180 v
359 634 v
364 634 v
0 0 z
EndSpiro
EndSplineSet
        Fore
        SplineSet
301 0 m 0
238 0 l 0
315 510 l 0
112 210 l 0
392 210 l 0
383 150 l 0
21 150 l 0
21 150 l 0
337 660 l 0
400 660 l 0
301 0 l 0
Z
Spiro
301 0 v
238 0 v
315 510 v
112 210 v
392 210 v
383 150 v
21 150 v
21 150 v
337 660 v
400 660 v
0 0 z
EndSpiro
EndSplineSet
        EndChar
StartChar: 5
Encoding: 53 53 0
Width: 433
InSpiro: 1
        Flags: H
        LayerCount: 2
        Back
        SplineSet
424 634 m 0
424 630 l 0
124 630 l 0
79 330 l 0
75 330 l 0
120 634 l 0
120 634 l 0
424 634 l 0
Z
79 330 m 0
75 330 l 0
89 362 113 390 143 409 c 0
172 427 207 437 242 433 c 0
263 430 283 421 301 409 c 0
318 397 333 380 344 362 c 0
366 323 370 276 364 232 c 0
356 183 337 137 306 100 c 0
274 62 230 35 182 30 c 0
149 26 115 33 89 53 c 0
63 71 47 102 45 134 c 0
49 134 l 0
51 103 66 74 91 56 c 0
116 36 149 29 181 33 c 0
228 38 271 66 302 103 c 0
332 139 351 185 359 232 c 0
365 275 362 321 341 360 c 0
330 378 316 394 299 406 c 0
282 419 261 427 241 430 c 0
207 434 173 424 145 407 c 0
116 388 92 361 79 330 c 0
Z
Spiro
424 634 v
424 630 v
124 630 v
79 330 v
75 330 v
120 634 v
120 634 v
79 330 v
75 330 v
143 409 c
242 433 c
344 362 c
364 232 c
306 100 c
182 30 c
89 53 c
45 134 v
49 134 v
91 56 c
181 33 c
302 103 c
359 232 c
341 360 c
241 430 c
145 407 c
0 0 z
EndSpiro
EndSplineSet
        Fore
        SplineSet
460 660 m 0
451 600 l 0
151 600 l 0
106 300 l 0
44 300 l 0
98 660 l 0
98 660 l 0
460 660 l 0
Z
106 300 m 0
44 300 l 0
54 346 80 389 118 419 c 0
155 448 203 464 251 459 c 0
300 452 345 421 371 379 c 0
397 334 402 280 395 230 c 0
386 174 362 121 326 79 c 0
289 36 238 5 183 0 c 0
139 -3 93 9 62 40 c 0
30 70 15 116 23 160 c 0
85 160 l 0
82 146 82 132 86 119 c 0
90 105 98 93 108 84 c 0
117 74 130 67 143 63 c 0
156 59 170 57 184 59 c 0
204 60 223 67 241 78 c 0
258 88 273 103 286 119 c 0
310 150 325 189 332 230 c 0
337 266 335 305 319 339 c 0
310 354 299 369 285 379 c 0
270 390 253 397 236 400 c 0
206 403 176 392 153 374 c 0
129 355 113 328 106 300 c 0
Z
Spiro
460 660 v
451 600 v
151 600 v
106 300 v
44 300 v
98 660 v
98 660 v
106 300 v
44 300 v
118 419 c
251 459 c
371 379 c
395 230 c
326 79 c
183 0 c
62 40 c
23 160 v
85 160 v
108 84 c
184 59 c
286 119 c
332 230 c
319 339 c
236 400 c
153 374 c
0 0 z
EndSpiro
EndSplineSet
        EndChar
StartChar: 7
Encoding: 55 55 0
Width: 433
InSpiro: 1
        Flags: H
        LayerCount: 2
        Back
        SplineSet
120 630 m 0
120 634 l 0
424 634 l 0
424 634 l 0
184 30 l 0
179 30 l 0
419 630 l 0
120 630 l 0
Z
Spiro
120 630 v
120 634 v
424 634 v
424 634 v
184 30 v
179 30 v
419 630 v
0 0 z
EndSpiro
EndSplineSet
        Fore
        SplineSet
89 600 m 0
98 660 l 0
460 660 l 0
460 660 l 0
211 0 l 0
148 0 l 0
380 600 l 0
89 600 l 0
Z
Spiro
89 600 v
98 660 v
460 660 v
460 660 v
211 0 v
148 0 v
380 600 v
0 0 z
EndSpiro
EndSplineSet
        EndChar
StartChar: 8
Encoding: 56 56 0
Width: 433
InSpiro: 1
        Flags: H
        LayerCount: 2
        Back
        SplineSet
272 630 m 0
229 630 187 615 155 589 c 0
138 576 124 560 114 541 c 0
105 523 99 502 101 482 c 0
102 465 107 448 115 433 c 0
123 418 134 405 146 393 c 0
169 368 198 350 228 333 c 0
257 315 285 295 308 271 c 0
332 246 350 215 356 182 c 0
357 160 352 138 342 119 c 0
331 99 317 83 300 70 c 0
266 43 223 30 181 30 c 0
161 29 141 32 123 39 c 0
105 45 88 56 75 71 c 0
61 85 52 103 48 123 c 0
44 142 45 163 52 182 c 0
63 219 92 248 124 272 c 0
155 295 190 314 225 333 c 0
259 349 294 367 325 391 c 0
355 415 382 445 396 482 c 0
401 500 402 519 398 538 c 0
394 557 385 574 373 589 c 0
360 602 344 613 326 620 c 0
309 626 290 629 272 630 c 0
Z
401 481 m 0
389 443 359 413 328 390 c 0
297 366 262 347 228 330 c 0
192 313 158 295 127 271 c 0
96 247 70 217 56 181 c 0
50 162 49 142 52 124 c 0
56 105 65 87 78 73 c 0
90 58 107 48 125 42 c 0
143 35 162 33 182 34 c 0
222 34 263 49 296 74 c 0
312 86 327 102 337 120 c 0
347 139 352 160 351 181 c 0
349 197 343 214 335 228 c 0
327 243 316 256 305 269 c 0
293 281 281 293 267 303 c 0
254 313 239 321 225 330 c 0
195 347 167 366 143 391 c 0
120 416 102 447 97 481 c 0
95 502 101 523 111 542 c 0
121 561 135 577 152 591 c 0
185 618 228 633 271 634 c 0
290 634 310 631 329 624 c 0
347 617 364 606 378 592 c 0
391 577 400 558 404 539 c 0
408 520 406 499 401 481 c 0
Z
Spiro
272 630 c
155 589 c
101 482 c
146 393 c
228 333 a
273 303 c
356 182 c
300 70 c
181 30 c
75 71 c
52 182 c
124 272 c
225 333 a
279 363 c
396 482 c
373 589 c
401 481 c
328 390 c
228 330 a
173 300 c
56 181 c
78 73 c
182 34 c
296 74 c
351 181 c
305 269 c
225 330 a
179 360 c
97 481 c
152 591 c
271 634 c
378 592 c
0 0 z
EndSpiro
EndSplineSet
        Fore
        SplineSet
270 600 m 0
236 599 203 589 177 569 c 0
163 559 152 546 143 532 c 0
135 518 131 501 132 485 c 0
132 469 138 455 145 442 c 0
153 428 164 417 175 407 c 0
196 386 222 370 249 355 c 0
281 335 311 312 336 284 c 0
361 256 380 222 387 185 c 0
388 159 382 132 370 109 c 0
358 86 341 66 321 50 c 0
281 17 230 0 179 0 c 0
155 0 131 3 109 11 c 0
87 20 67 33 52 51 c 0
36 68 26 91 21 114 c 0
17 138 19 162 27 185 c 0
40 225 70 259 104 286 c 0
138 313 177 333 216 355 c 0
247 369 279 384 307 404 c 0
334 425 359 452 371 485 c 0
374 499 375 514 371 529 c 0
368 544 361 558 351 569 c 0
340 579 327 587 313 592 c 0
299 597 284 600 270 600 c 0
Z
431 474 m 0
417 432 385 398 351 372 c 0
316 345 278 324 241 304 c 0
209 289 178 274 150 253 c 0
122 233 98 206 86 174 c 0
81 159 80 143 84 128 c 0
87 114 94 99 105 89 c 0
115 77 129 70 143 65 c 0
158 60 173 59 189 60 c 0
221 61 252 71 279 90 c 0
292 99 304 111 312 126 c 0
321 140 326 157 325 174 c 0
323 189 318 203 310 216 c 0
302 229 291 240 281 251 c 0
259 272 233 288 208 304 c 0
175 323 145 346 120 374 c 0
95 402 76 436 71 474 c 0
69 499 75 525 87 548 c 0
99 570 116 590 136 607 c 0
175 640 226 659 278 660 c 0
301 660 325 656 347 647 c 0
369 639 389 625 405 608 c 0
420 590 431 567 435 544 c 0
440 521 438 496 431 474 c 0
Z
Spiro
270 600 c
177 569 c
132 485 c
175 407 c
249 355 a
294 325 c
387 185 c
321 50 c
179 0 c
52 51 c
27 185 c
104 286 c
216 355 a
270 385 c
371 485 c
351 569 c
431 474 c
351 372 c
241 304 a
187 274 c
86 174 c
105 89 c
189 60 c
279 90 c
325 174 c
281 251 c
208 304 a
163 334 c
71 474 c
136 607 c
278 660 c
405 608 c
0 0 z
EndSpiro
EndSplineSet
        EndChar
StartChar: A
Encoding: 65 65 0
Width: 433
InSpiro: 1
        Flags: H
        LayerCount: 2
        Back
        SplineSet
34 30 m 0
30 30 l 0
88 182 l 0
269 634 l 0
274 634 l 0
319 182 l 0
334 30 l 0
329 30 l 0
314 181 l 0
270 623 l 0
93 181 l 0
34 30 l 0
Z
88 180 m 0
89 184 l 0
320 184 l 0
319 180 l 0
88 180 l 0
Z
Spiro
34 30 v
30 30 v
88 182 v
269 634 v
274 634 v
319 182 v
334 30 v
329 30 v
314 181 v
270 623 v
93 181 v
88 180 v
89 184 v
320 184 v
319 180 v
0 0 z
EndSpiro
EndSplineSet
        Fore
        SplineSet
61 0 m 0
-1 0 l 0
64 187 l 0
247 660 l 0
310 660 l 0
351 187 l 0
361 0 l 0
298 0 l 0
287 172 l 0
255 506 l 0
122 172 l 0
61 0 l 0
Z
57 150 m 0
66 210 l 0
355 210 l 0
346 150 l 0
57 150 l 0
Z
Spiro
61 0 v
-1 0 v
64 187 v
247 660 v
310 660 v
351 187 v
361 0 v
298 0 v
287 172 v
255 506 v
122 172 v
57 150 v
66 210 v
355 210 v
346 150 v
0 0 z
EndSpiro
EndSplineSet
        EndChar
StartChar: B
Encoding: 66 66 0
Width: 433
InSpiro: 1
        Flags: H
        LayerCount: 2
        Back
        SplineSet
34 30 m 0
30 30 l 0
120 634 l 0
120 634 l 0
272 634 l 0
291 634 312 633 331 628 c 0
350 622 368 612 381 597 c 0
393 581 400 561 403 541 c 0
406 522 404 501 401 482 c 0
397 460 392 439 383 419 c 0
374 399 362 380 346 366 c 0
330 351 310 341 290 336 c 0
269 330 248 329 227 330 c 0
75 330 l 0
75 334 l 0
227 334 l 0
247 334 268 334 288 339 c 0
308 345 327 355 343 369 c 0
358 383 370 401 378 420 c 0
387 440 392 461 396 482 c 0
399 501 400 520 398 540 c 0
396 559 389 578 377 594 c 0
364 608 347 619 329 624 c 0
310 629 291 630 272 630 c 0
124 630 l 0
34 30 l 0
Z
75 330 m 0
75 334 l 0
227 334 l 0
246 334 267 333 286 328 c 0
305 322 323 312 336 297 c 0
348 281 355 261 358 241 c 0
361 222 359 201 356 182 c 0
352 160 347 139 338 119 c 0
329 99 317 80 301 66 c 0
285 51 265 41 245 36 c 0
224 30 203 29 182 30 c 0
30 30 l 0
30 34 l 0
182 34 l 0
202 34 223 34 243 39 c 0
263 45 282 55 298 69 c 0
313 83 325 101 333 120 c 0
342 140 347 161 351 182 c 0
354 201 355 220 353 240 c 0
351 259 344 278 332 294 c 0
319 308 302 319 284 324 c 0
265 329 246 330 227 330 c 0
75 330 l 0
Z
Spiro
34 30 v
30 30 v
120 634 v
120 634 v
272 634 ]
381 597 c
401 482 c
346 366 c
227 330 [
75 330 v
75 334 v
227 334 ]
343 369 c
396 482 c
377 594 c
272 630 [
124 630 v
75 330 v
75 334 v
227 334 ]
336 297 c
356 182 c
301 66 c
182 30 [
30 30 v
30 34 v
182 34 ]
298 69 c
351 182 c
332 294 c
227 330 [
0 0 z
EndSpiro
EndSplineSet
        Fore
        SplineSet
61 0 m 0
-1 0 l 0
98 660 l 0
98 660 l 0
279 660 l 0
302 660 326 659 349 653 c 0
371 646 392 634 408 616 c 0
423 597 431 574 435 551 c 0
438 527 436 503 433 480 c 0
424 428 405 377 367 343 c 0
348 326 325 313 300 307 c 0
276 300 250 299 225 300 c 0
44 300 l 0
53 360 l 0
234 360 l 0
250 360 267 360 283 364 c 0
299 369 314 377 327 389 c 0
352 412 364 446 370 480 c 0
372 495 373 511 371 526 c 0
369 542 363 557 354 570 c 0
344 582 330 590 315 595 c 0
301 599 285 600 270 600 c 0
151 600 l 0
61 0 l 0
Z
44 300 m 0
53 360 l 0
234 360 l 0
257 360 281 359 304 353 c 0
326 346 347 334 363 316 c 0
378 297 386 274 390 251 c 0
393 227 391 203 388 180 c 0
379 128 360 77 322 43 c 0
303 26 280 13 255 7 c 0
231 0 205 0 180 0 c 0
-1 0 l 0
8 60 l 0
189 60 l 0
205 60 222 60 238 64 c 0
254 69 269 77 282 89 c 0
307 112 319 146 325 180 c 0
327 195 328 211 326 226 c 0
324 242 318 257 309 270 c 0
299 282 285 290 270 295 c 0
256 299 240 300 225 300 c 0
44 300 l 0
Z
Spiro
61 0 v
-1 0 v
98 660 v
98 660 v
279 660 ]
408 616 c
433 480 c
367 343 c
225 300 [
44 300 v
53 360 v
234 360 ]
327 389 c
370 480 c
354 570 c
270 600 [
151 600 v
44 300 v
53 360 v
234 360 ]
363 316 c
388 180 c
322 43 c
180 0 [
-1 0 v
8 60 v
189 60 ]
282 89 c
325 180 c
309 270 c
225 300 [
0 0 z
EndSpiro
EndSplineSet
        EndChar
StartChar: D
Encoding: 68 68 0
Width: 433
InSpiro: 1
        Flags: H
        LayerCount: 2
        Back
        SplineSet
30 30 m 0
30 30 l 0
120 634 l 0
120 634 l 0
272 634 l 0
292 634 312 633 331 628 c 0
351 623 370 613 383 598 c 0
396 582 402 562 404 542 c 0
406 522 404 502 401 482 c 0
356 182 l 0
352 160 348 138 340 118 c 0
332 97 319 79 303 65 c 0
286 50 266 41 246 35 c 0
225 30 203 29 182 30 c 0
30 30 l 0
Z
182 34 m 0
202 34 224 34 244 39 c 0
264 44 284 54 300 68 c 0
316 82 328 100 336 119 c 0
344 139 347 160 351 182 c 0
396 482 l 0
398 501 401 521 399 540 c 0
398 560 391 579 379 595 c 0
366 609 348 619 329 624 c 0
311 629 291 630 272 630 c 0
124 630 l 0
34 34 l 0
182 34 l 0
Z
Spiro
30 30 v
30 30 v
120 634 v
120 634 v
272 634 ]
383 598 c
401 482 [
356 182 ]
303 65 c
182 30 [
182 34 ]
300 68 c
351 182 [
396 482 ]
379 595 c
272 630 [
124 630 v
34 34 v
0 0 z
EndSpiro
EndSplineSet
        Fore
        SplineSet
-1 0 m 0
-1 0 l 0
98 660 l 0
98 660 l 0
279 660 l 0
302 660 326 659 349 653 c 0
372 647 394 635 410 618 c 0
425 599 434 576 437 552 c 0
439 528 436 503 433 480 c 0
388 180 l 0
384 154 379 128 369 104 c 0
359 79 343 57 324 41 c 0
304 24 280 12 256 6 c 0
231 0 205 0 180 0 c 0
-1 0 l 0
Z
189 60 m 0
205 60 223 60 239 64 c 0
255 68 271 76 284 88 c 0
296 99 306 114 313 129 c 0
319 145 322 163 325 180 c 0
370 480 l 0
372 495 374 511 372 527 c 0
371 543 366 558 356 571 c 0
346 583 331 591 316 595 c 0
301 599 285 600 270 600 c 0
151 600 l 0
70 60 l 0
189 60 l 0
Z
Spiro
-1 0 v
-1 0 v
98 660 v
98 660 v
279 660 ]
410 618 c
433 480 [
388 180 ]
324 41 c
180 0 [
189 60 ]
284 88 c
325 180 [
370 480 ]
356 571 c
270 600 [
151 600 v
70 60 v
0 0 z
EndSpiro
EndSplineSet
        EndChar
StartChar: E
Encoding: 69 69 0
Width: 433
InSpiro: 1
        Flags: H
        LayerCount: 2
        Back
        SplineSet
424 634 m 0
424 630 l 0
124 630 l 0
34 34 l 0
334 34 l 0
334 30 l 0
30 30 l 0
30 30 l 0
120 634 l 0
120 634 l 0
424 634 l 0
Z
75 330 m 0
75 334 l 0
379 334 l 0
379 330 l 0
75 330 l 0
Z
Spiro
424 634 v
424 630 v
124 630 v
34 34 v
334 34 v
334 30 v
30 30 v
30 30 v
120 634 v
120 634 v
75 330 v
75 334 v
379 334 v
379 330 v
0 0 z
EndSpiro
EndSplineSet
        Fore
        SplineSet
460 660 m 0
451 600 l 0
151 600 l 0
70 60 l 0
370 60 l 0
361 0 l 0
-1 0 l 0
-1 0 l 0
98 660 l 0
98 660 l 0
460 660 l 0
Z
44 300 m 0
53 360 l 0
415 360 l 0
406 300 l 0
44 300 l 0
Z
Spiro
460 660 v
451 600 v
151 600 v
70 60 v
370 60 v
361 0 v
-1 0 v
-1 0 v
98 660 v
98 660 v
44 300 v
53 360 v
415 360 v
406 300 v
0 0 z
EndSpiro
EndSplineSet
        EndChar
StartChar: F
Encoding: 70 70 0
Width: 433
InSpiro: 1
        Flags: H
        LayerCount: 2
        Back
        SplineSet
424 634 m 0
424 630 l 0
124 630 l 0
34 30 l 0
30 30 l 0
120 634 l 0
120 634 l 0
424 634 l 0
Z
75 330 m 0
75 334 l 0
279 334 l 0
279 330 l 0
75 330 l 0
Z
Spiro
424 634 v
424 630 v
124 630 v
34 30 v
30 30 v
120 634 v
120 634 v
75 330 v
75 334 v
279 334 v
279 330 v
0 0 z
EndSpiro
EndSplineSet
        Fore
        SplineSet
460 660 m 0
451 600 l 0
151 600 l 0
61 0 l 0
-1 0 l 0
98 660 l 0
98 660 l 0
460 660 l 0
Z
44 300 m 0
53 360 l 0
315 360 l 0
306 300 l 0
44 300 l 0
Z
Spiro
460 660 v
451 600 v
151 600 v
61 0 v
-1 0 v
98 660 v
98 660 v
44 300 v
53 360 v
315 360 v
306 300 v
0 0 z
EndSpiro
EndSplineSet
        EndChar
StartChar: G
Encoding: 71 71 0
Width: 433
InSpiro: 1
        Flags: H
        LayerCount: 2
        Back
        SplineSet
409 530 m 0
404 530 l 0
402 560 385 590 361 609 c 0
335 627 302 634 272 630 c 0
239 625 209 610 184 589 c 0
159 568 140 541 126 512 c 0
98 456 88 393 79 332 c 0
70 272 61 211 76 154 c 0
82 126 94 100 112 78 c 0
130 57 154 40 182 33 c 0
202 27 224 27 245 33 c 0
266 39 285 50 301 65 c 0
316 79 328 98 336 118 c 0
343 139 347 160 351 182 c 0
374 330 l 0
224 330 l 0
224 334 l 0
379 334 l 0
379 334 l 0
356 182 l 0
352 159 348 137 340 116 c 0
332 95 319 76 303 61 c 0
286 46 267 35 245 29 c 0
224 24 202 24 181 30 c 0
153 37 129 54 111 76 c 0
93 98 81 124 74 152 c 0
59 210 66 271 75 331 c 0
83 393 94 456 122 513 c 0
136 542 156 570 181 591 c 0
207 613 238 628 271 633 c 0
303 637 337 630 364 611 c 0
389 592 406 561 409 530 c 0
Z
Spiro
409 530 v
404 530 v
361 609 c
272 630 c
126 512 c
79 332 c
76 154 c
182 33 c
301 65 c
351 182 [
374 330 v
224 330 v
224 334 v
379 334 v
379 334 v
356 182 ]
303 61 c
181 30 c
74 152 c
75 331 c
122 513 c
271 633 c
364 611 c
0 0 z
EndSpiro
EndSplineSet
        Fore
        SplineSet
436 500 m 0
373 500 l 0
377 526 368 555 349 574 c 0
329 592 301 601 275 600 c 0
245 598 217 584 195 565 c 0
172 545 156 520 145 493 c 0
123 441 118 385 110 330 c 0
102 276 90 221 101 168 c 0
105 142 115 118 131 98 c 0
147 78 169 63 195 59 c 0
211 55 228 57 244 62 c 0
259 68 274 77 286 89 c 0
297 100 307 115 313 130 c 0
319 146 322 163 325 180 c 0
343 300 l 0
193 300 l 0
202 360 l 0
415 360 l 0
415 360 l 0
388 180 l 0
383 152 379 125 368 99 c 0
357 74 341 51 321 33 c 0
300 15 276 3 250 -2 c 0
224 -8 197 -7 172 0 c 0
142 9 116 28 95 51 c 0
75 75 61 104 53 134 c 0
34 196 38 264 48 329 c 0
57 398 72 467 106 529 c 0
123 561 145 590 173 613 c 0
202 636 235 653 272 659 c 0
294 662 317 661 338 655 c 0
360 649 380 638 397 623 c 0
413 607 425 588 432 566 c 0
439 545 440 522 436 500 c 0
Z
Spiro
436 500 v
373 500 v
349 574 c
275 600 c
145 493 c
110 330 c
101 168 c
195 59 c
286 89 c
325 180 [
343 300 v
193 300 v
202 360 v
415 360 v
415 360 v
388 180 ]
321 33 c
172 0 c
53 134 c
48 329 c
106 529 c
272 659 c
397 623 c
0 0 z
EndSpiro
EndSplineSet
        EndChar
StartChar: H
Encoding: 72 72 0
Width: 433
InSpiro: 1
        Flags: H
        LayerCount: 2
        Back
        SplineSet
34 30 m 0
30 30 l 0
120 634 l 0
124 634 l 0
34 30 l 0
Z
75 330 m 0
75 334 l 0
379 334 l 0
379 330 l 0
75 330 l 0
Z
334 30 m 0
329 30 l 0
419 634 l 0
424 634 l 0
334 30 l 0
Z
Spiro
34 30 v
30 30 v
120 634 v
124 634 v
75 330 v
75 334 v
379 334 v
379 330 v
334 30 v
329 30 v
419 634 v
424 634 v
0 0 z
EndSpiro
EndSplineSet
        Fore
        SplineSet
61 0 m 0
-1 0 l 0
98 660 l 0
160 660 l 0
61 0 l 0
Z
44 300 m 0
53 360 l 0
415 360 l 0
406 300 l 0
44 300 l 0
Z
361 0 m 0
298 0 l 0
397 660 l 0
460 660 l 0
361 0 l 0
Z
Spiro
61 0 v
-1 0 v
98 660 v
160 660 v
44 300 v
53 360 v
415 360 v
406 300 v
361 0 v
298 0 v
397 660 v
460 660 v
0 0 z
EndSpiro
EndSplineSet
        EndChar
StartChar: J
Encoding: 74 74 0
Width: 433
InSpiro: 1
        Flags: H
        LayerCount: 2
        Back
        SplineSet
120 630 m 0
120 634 l 0
424 634 l 0
424 634 l 0
379 332 l 0
369 269 357 205 328 149 c 0
312 120 293 93 268 71 c 0
244 50 214 35 182 30 c 0
149 24 114 31 88 51 c 0
62 70 45 101 45 134 c 0
49 134 l 0
49 102 64 71 90 53 c 0
115 34 149 28 181 33 c 0
212 37 242 53 266 74 c 0
291 95 310 122 325 151 c 0
353 206 364 269 374 332 c 0
419 630 l 0
120 630 l 0
Z
Spiro
120 630 v
120 634 v
424 634 v
424 634 v
379 332 ]
328 149 c
182 30 c
88 51 c
45 134 v
49 134 v
90 53 c
181 33 c
325 151 c
374 332 [
419 630 v
0 0 z
EndSpiro
EndSplineSet
        Fore
        SplineSet
89 600 m 0
98 660 l 0
460 660 l 0
460 660 l 0
410 330 l 0
399 260 386 189 352 128 c 0
334 96 311 67 283 44 c 0
254 21 220 5 185 0 c 0
162 -3 139 -2 117 3 c 0
95 9 75 20 59 36 c 0
42 51 30 71 24 93 c 0
17 114 17 138 23 160 c 0
85 160 l 0
81 146 81 132 85 118 c 0
88 105 96 92 106 83 c 0
115 73 128 66 141 62 c 0
154 58 168 57 182 59 c 0
210 62 237 76 258 96 c 0
279 116 295 141 307 168 c 0
329 218 338 274 347 330 c 0
388 600 l 0
89 600 l 0
Z
Spiro
89 600 v
98 660 v
460 660 v
460 660 v
410 330 ]
352 128 c
185 0 c
59 36 c
23 160 v
85 160 v
106 83 c
182 59 c
307 168 c
347 330 [
388 600 v
0 0 z
EndSpiro
EndSplineSet
        EndChar
StartChar: K
Encoding: 75 75 0
Width: 433
InSpiro: 1
        Flags: H
        LayerCount: 2
        Back
        SplineSet
419 634 m 0
424 634 l 0
79 331 l 0
34 30 l 0
30 30 l 0
75 334 l 0
75 334 l 0
419 634 l 0
Z
120 634 m 0
124 634 l 0
79 332 l 0
334 30 l 0
329 30 l 0
75 330 l 0
75 330 l 0
120 634 l 0
Z
Spiro
419 634 v
424 634 v
79 331 v
34 30 v
30 30 v
75 334 v
75 334 v
120 634 v
124 634 v
79 332 v
334 30 v
329 30 v
75 330 v
75 330 v
0 0 z
EndSpiro
EndSplineSet
        Fore
        SplineSet
397 660 m 0
460 660 l 0
108 317 l 0
61 0 l 0
-1 0 l 0
53 360 l 0
53 360 l 0
397 660 l 0
Z
98 660 m 0
160 660 l 0
112 342 l 0
361 0 l 0
298 0 l 0
44 300 l 0
44 300 l 0
98 660 l 0
Z
Spiro
397 660 v
460 660 v
108 317 v
61 0 v
-1 0 v
53 360 v
53 360 v
98 660 v
160 660 v
112 342 v
361 0 v
298 0 v
44 300 v
44 300 v
0 0 z
EndSpiro
EndSplineSet
        EndChar
StartChar: M
Encoding: 77 77 0
Width: 583
InSpiro: 1
        Flags: H
        LayerCount: 2
        Back
        SplineSet
34 30 m 0
30 30 l 0
120 634 l 0
124 634 l 0
258 37 l 0
569 634 l 0
574 634 l 0
484 30 l 0
479 30 l 0
567 620 l 0
259 30 l 0
254 30 l 0
122 620 l 0
34 30 l 0
Z
Spiro
34 30 v
30 30 v
120 634 v
124 634 v
258 37 v
569 634 v
574 634 v
484 30 v
479 30 v
567 620 v
259 30 v
254 30 v
122 620 v
0 0 z
EndSpiro
EndSplineSet
        Fore
        SplineSet
61 0 m 0
-1 0 l 0
98 660 l 0
160 660 l 0
272 115 l 0
547 660 l 0
610 660 l 0
511 0 l 0
448 0 l 0
518 464 l 0
286 0 l 0
223 0 l 0
129 464 l 0
61 0 l 0
Z
Spiro
61 0 v
-1 0 v
98 660 v
160 660 v
272 115 v
547 660 v
610 660 v
511 0 v
448 0 v
518 464 v
286 0 v
223 0 v
129 464 v
0 0 z
EndSpiro
EndSplineSet
        EndChar
StartChar: O
Encoding: 79 79 0
Width: 433
InSpiro: 1
        Flags: H
        LayerCount: 2
        Back
        SplineSet
79 332 m 0
68 271 57 208 71 149 c 0
77 121 89 94 108 72 c 0
127 51 153 36 182 34 c 0
198 32 215 35 230 41 c 0
245 47 259 56 271 67 c 0
296 89 313 118 326 149 c 0
350 206 362 269 374 331 c 0
384 391 394 454 381 514 c 0
374 541 363 568 344 590 c 0
325 611 299 627 271 630 c 0
254 631 237 629 221 623 c 0
206 617 191 608 179 596 c 0
154 574 137 544 125 514 c 0
101 456 89 393 79 332 c 0
Z
272 634 m 0
300 631 327 615 346 594 c 0
366 572 378 545 385 517 c 0
399 456 389 393 379 332 c 0
367 268 354 204 329 146 c 0
315 115 298 85 272 63 c 0
260 52 246 43 230 37 c 0
214 31 197 28 181 30 c 0
152 32 125 47 106 69 c 0
86 90 74 117 68 146 c 0
53 206 64 269 75 331 c 0
86 393 98 457 123 516 c 0
136 547 153 577 178 600 c 0
191 611 206 620 222 626 c 0
237 632 255 635 272 634 c 0
Z
Spiro
79 332 o
71 149 c
182 34 c
326 149 c
374 331 o
381 514 c
271 630 c
125 514 c
272 634 c
385 517 c
379 332 o
329 146 c
181 30 c
68 146 c
75 331 o
123 516 c
0 0 z
EndSpiro
EndSplineSet
        Fore
        SplineSet
110 330 m 0
100 276 88 221 97 167 c 0
100 141 109 117 124 97 c 0
140 77 163 62 189 60 c 0
203 58 218 61 231 67 c 0
244 72 256 81 266 91 c 0
287 112 300 138 310 166 c 0
328 218 337 274 347 329 c 0
356 382 367 437 359 492 c 0
355 516 346 541 331 561 c 0
316 581 293 596 269 600 c 0
254 601 238 599 225 593 c 0
211 588 198 579 188 569 c 0
166 548 153 520 144 492 c 0
126 439 119 384 110 330 c 0
Z
279 660 m 0
311 657 341 641 364 618 c 0
386 595 402 565 411 535 c 0
430 468 422 397 410 330 c 0
397 259 379 188 348 124 c 0
331 90 310 59 281 35 c 0
252 12 216 -2 179 0 c 0
146 2 116 18 93 40 c 0
70 63 54 92 46 124 c 0
26 190 35 261 48 329 c 0
60 399 77 469 108 534 c 0
124 567 145 600 174 624 c 0
203 648 241 663 279 660 c 0
Z
Spiro
110 330 o
97 167 c
189 60 c
310 166 c
347 329 o
359 492 c
269 600 c
144 492 c
279 660 c
411 535 c
410 330 o
348 124 c
179 0 c
46 124 c
48 329 o
108 534 c
0 0 z
EndSpiro
EndSplineSet
        EndChar
StartChar: R
Encoding: 82 82 0
Width: 433
InSpiro: 1
        Flags: H
        LayerCount: 2
        Back
        SplineSet
34 30 m 0
30 30 l 0
120 634 l 0
120 634 l 0
272 634 l 0
291 634 312 633 331 628 c 0
350 622 368 612 381 597 c 0
393 581 400 561 403 541 c 0
406 522 404 501 401 482 c 0
397 460 392 439 383 419 c 0
374 399 362 380 346 366 c 0
330 351 310 341 290 336 c 0
269 330 248 329 227 330 c 0
75 330 l 0
75 334 l 0
227 334 l 0
247 334 268 334 288 339 c 0
308 345 327 355 343 369 c 0
358 383 370 401 378 420 c 0
387 440 392 461 396 482 c 0
399 501 400 520 398 540 c 0
396 559 389 578 377 594 c 0
364 608 347 619 329 624 c 0
310 629 291 630 272 630 c 0
124 630 l 0
34 30 l 0
Z
75 330 m 0
75 334 l 0
229 334 l 0
229 334 l 0
334 30 l 0
329 30 l 0
225 330 l 0
75 330 l 0
Z
Spiro
34 30 v
30 30 v
120 634 v
120 634 v
272 634 ]
381 597 c
401 482 c
346 366 c
227 330 [
75 330 v
75 334 v
227 334 ]
343 369 c
396 482 c
377 594 c
272 630 [
124 630 v
75 330 v
75 334 v
229 334 v
229 334 v
334 30 v
329 30 v
225 330 v
0 0 z
EndSpiro
EndSplineSet
        Fore
        SplineSet
61 0 m 0
-1 0 l 0
98 660 l 0
98 660 l 0
279 660 l 0
302 660 326 659 349 653 c 0
371 646 392 634 408 616 c 0
423 597 431 574 435 551 c 0
438 527 436 503 433 480 c 0
424 428 405 377 367 343 c 0
348 326 325 313 300 307 c 0
276 300 250 299 225 300 c 0
44 300 l 0
53 360 l 0
234 360 l 0
250 360 267 360 283 364 c 0
299 369 314 377 327 389 c 0
352 412 364 446 370 480 c 0
372 495 373 511 371 526 c 0
369 542 363 557 354 570 c 0
344 582 330 590 315 595 c 0
301 599 285 600 270 600 c 0
151 600 l 0
61 0 l 0
Z
44 300 m 0
53 360 l 0
265 360 l 0
265 360 l 0
361 0 l 0
298 0 l 0
205 300 l 0
44 300 l 0
Z
Spiro
61 0 v
-1 0 v
98 660 v
98 660 v
279 660 ]
408 616 c
433 480 c
367 343 c
225 300 [
44 300 v
53 360 v
234 360 ]
327 389 c
370 480 c
354 570 c
270 600 [
151 600 v
44 300 v
53 360 v
265 360 v
265 360 v
361 0 v
298 0 v
205 300 v
0 0 z
EndSpiro
EndSplineSet
        EndChar
StartChar: U
Encoding: 85 85 0
Width: 433
InSpiro: 1
        Flags: H
        LayerCount: 2
        Back
        SplineSet
120 634 m 0
124 634 l 0
79 332 l 0
74 301 69 270 66 240 c 0
63 209 61 178 68 148 c 0
73 119 86 92 105 71 c 0
125 50 152 36 181 34 c 0
213 31 246 45 271 67 c 0
296 88 314 117 328 148 c 0
353 205 364 269 374 332 c 0
419 634 l 0
424 634 l 0
379 332 l 0
369 268 358 203 332 145 c 0
318 114 299 85 274 63 c 0
248 41 215 27 182 30 c 0
152 32 124 46 104 67 c 0
84 88 71 116 65 145 c 0
58 175 59 207 62 238 c 0
65 269 70 300 75 332 c 0
120 634 l 0
Z
Spiro
120 634 v
124 634 v
79 332 ]
68 148 c
181 34 c
328 148 c
374 332 [
419 634 v
424 634 v
379 332 ]
332 145 c
182 30 c
65 145 c
75 332 [
0 0 z
EndSpiro
EndSplineSet
        Fore
        SplineSet
98 660 m 0
160 660 l 0
110 330 l 0
105 302 101 275 97 248 c 0
94 221 92 194 96 167 c 0
99 141 107 116 123 96 c 0
139 76 162 62 188 60 c 0
202 58 217 61 230 66 c 0
244 72 256 81 266 91 c 0
287 111 300 138 311 166 c 0
330 218 338 274 347 330 c 0
397 660 l 0
460 660 l 0
410 330 l 0
399 258 386 186 353 122 c 0
335 88 313 57 283 34 c 0
254 12 217 -2 180 0 c 0
147 1 115 16 91 38 c 0
67 60 50 90 42 122 c 0
32 155 31 191 34 226 c 0
37 260 42 295 48 330 c 0
98 660 l 0
Z
Spiro
98 660 v
160 660 v
110 330 ]
96 167 c
188 60 c
311 166 c
347 330 [
397 660 v
460 660 v
410 330 ]
353 122 c
180 0 c
42 122 c
48 330 [
0 0 z
EndSpiro
EndSplineSet
        EndChar
StartChar: W
Encoding: 87 87 0
Width: 733
InSpiro: 1
        Flags: H
        LayerCount: 2
        Back
        SplineSet
120 634 m 0
124 634 l 0
183 40 l 0
419 634 l 0
424 634 l 0
483 40 l 0
719 634 l 0
724 634 l 0
484 30 l 0
479 30 l 0
420 623 l 0
184 30 l 0
179 30 l 0
120 634 l 0
Z
Spiro
120 634 v
124 634 v
183 40 v
419 634 v
424 634 v
483 40 v
719 634 v
724 634 v
484 30 v
479 30 v
420 623 v
184 30 v
179 30 v
0 0 z
EndSpiro
EndSplineSet
        Fore
        SplineSet
98 660 m 0
160 660 l 0
202 153 l 0
397 660 l 0
460 660 l 0
502 153 l 0
697 660 l 0
760 660 l 0
511 0 l 0
448 0 l 0
405 506 l 0
211 0 l 0
148 0 l 0
98 660 l 0
Z
Spiro
98 660 v
160 660 v
202 153 v
397 660 v
460 660 v
502 153 v
697 660 v
760 660 v
511 0 v
448 0 v
405 506 v
211 0 v
148 0 v
0 0 z
EndSpiro
EndSplineSet
        EndChar
StartChar: X
Encoding: 88 88 0
Width: 433
InSpiro: 1
        Flags: H
        LayerCount: 2
        Back
        SplineSet
120 634 m 0
124 634 l 0
334 30 l 0
329 30 l 0
120 634 l 0
Z
419 634 m 0
424 634 l 0
34 30 l 0
30 30 l 0
419 634 l 0
Z
Spiro
120 634 v
124 634 v
334 30 v
329 30 v
419 634 v
424 634 v
34 30 v
30 30 v
0 0 z
EndSpiro
EndSplineSet
        Fore
        SplineSet
98 660 m 0
160 660 l 0
361 0 l 0
298 0 l 0
98 660 l 0
Z
397 660 m 0
460 660 l 0
61 0 l 0
-1 0 l 0
397 660 l 0
Z
Spiro
98 660 v
160 660 v
361 0 v
298 0 v
397 660 v
460 660 v
61 0 v
-1 0 v
0 0 z
EndSpiro
EndSplineSet
        EndChar
StartChar: Y
Encoding: 89 89 0
Width: 433
InSpiro: 1
        Flags: H
        LayerCount: 2
        Back
        SplineSet
120 634 m 0
124 634 l 0
227 336 l 0
419 634 l 0
424 634 l 0
229 330 l 0
224 330 l 0
120 634 l 0
Z
224 334 m 0
229 334 l 0
184 30 l 0
179 30 l 0
224 334 l 0
Z
Spiro
120 634 v
124 634 v
227 336 v
419 634 v
424 634 v
229 330 v
224 330 v
224 334 v
229 334 v
184 30 v
179 30 v
0 0 z
EndSpiro
EndSplineSet
        Fore
        SplineSet
98 660 m 0
160 660 l 0
239 397 l 0
397 660 l 0
460 660 l 0
256 300 l 0
193 300 l 0
98 660 l 0
Z
202 360 m 0
265 360 l 0
211 0 l 0
148 0 l 0
202 360 l 0
Z
Spiro
98 660 v
160 660 v
239 397 v
397 660 v
460 660 v
256 300 v
193 300 v
202 360 v
265 360 v
211 0 v
148 0 v
0 0 z
EndSpiro
EndSplineSet
        EndChar
StartChar: a
Encoding: 97 97 0
Width: 433
InSpiro: 1
        Flags: H
        LayerCount: 2
        Back
        SplineSet
389 434 m 0
394 434 l 0
334 30 l 0
329 30 l 0
389 434 l 0
Z
379 330 m 0
374 330 l 0
370 360 353 388 329 407 c 0
304 425 272 432 242 430 c 0
193 425 149 397 119 360 c 0
89 323 71 278 64 232 c 0
56 188 58 141 80 103 c 0
100 65 139 38 182 33 c 0
214 29 248 38 277 56 c 0
306 74 330 102 344 134 c 0
349 134 l 0
334 100 309 71 279 53 c 0
249 35 214 25 181 30 c 0
137 35 98 62 77 101 c 0
55 140 52 187 60 232 c 0
67 279 85 324 116 362 c 0
147 400 191 428 241 433 c 0
272 435 306 428 332 409 c 0
357 390 374 361 379 330 c 0
Z
Spiro
389 434 v
394 434 v
334 30 v
329 30 v
379 330 v
374 330 v
329 407 c
242 430 c
119 360 c
64 232 c
80 103 c
182 33 c
277 56 c
344 134 v
349 134 v
279 53 c
181 30 c
77 101 c
60 232 c
116 362 c
241 433 c
332 409 c
0 0 z
EndSpiro
EndSplineSet
        Fore
        SplineSet
367 460 m 0
430 460 l 0
361 0 l 0
298 0 l 0
367 460 l 0
Z
406 300 m 0
343 300 l 0
346 326 336 355 317 374 c 0
297 392 269 401 243 400 c 0
222 398 202 391 184 381 c 0
166 370 151 355 139 339 c 0
115 307 101 268 95 230 c 0
88 192 88 152 106 119 c 0
114 102 126 88 140 78 c 0
155 67 173 60 191 59 c 0
220 55 250 65 274 84 c 0
298 102 315 130 322 160 c 0
385 160 l 0
374 112 346 68 308 39 c 0
270 10 222 -5 176 0 c 0
126 6 81 37 56 80 c 0
29 124 24 179 33 230 c 0
41 284 64 336 100 379 c 0
136 422 187 454 244 459 c 0
287 462 332 448 364 419 c 0
395 388 411 343 406 300 c 0
Z
Spiro
367 460 v
430 460 v
361 0 v
298 0 v
406 300 v
343 300 v
317 374 c
243 400 c
139 339 c
95 230 c
106 119 c
191 59 c
274 84 c
322 160 v
385 160 v
308 39 c
176 0 c
56 80 c
33 230 c
100 379 c
244 459 c
364 419 c
0 0 z
EndSpiro
EndSplineSet
        EndChar
StartChar: c
Encoding: 99 99 0
Width: 433
InSpiro: 1
        Flags: H
        LayerCount: 2
        Back
        SplineSet
379 332 m 0
374 332 l 0
369 361 353 389 329 407 c 0
304 425 272 432 242 430 c 0
193 425 149 397 119 360 c 0
89 323 71 278 64 232 c 0
56 188 58 141 80 103 c 0
100 65 139 38 182 33 c 0
214 29 247 37 276 55 c 0
305 73 329 100 344 132 c 0
349 132 l 0
334 98 309 70 279 52 c 0
249 34 214 25 181 30 c 0
137 35 98 63 77 101 c 0
55 140 52 187 60 232 c 0
67 278 86 324 117 361 c 0
147 399 192 428 241 433 c 0
272 436 306 428 332 410 c 0
357 391 374 362 379 332 c 0
Z
Spiro
379 332 v
374 332 v
329 407 c
242 430 c
119 360 c
64 232 c
80 103 c
182 33 c
276 55 c
344 132 v
349 132 v
279 52 c
181 30 c
77 101 c
60 232 c
117 361 c
241 433 c
332 410 c
0 0 z
EndSpiro
EndSplineSet
        Fore
        SplineSet
410 330 m 0
347 330 l 0
341 351 327 371 309 384 c 0
290 396 266 401 244 400 c 0
223 398 203 391 185 380 c 0
167 369 152 355 140 339 c 0
115 307 101 269 95 230 c 0
88 192 89 152 107 119 c 0
115 103 127 88 142 78 c 0
156 67 174 61 192 59 c 0
216 56 242 62 264 75 c 0
286 87 304 107 317 130 c 0
380 130 l 0
363 88 333 52 296 29 c 0
260 6 216 -5 175 0 c 0
125 6 81 37 56 80 c 0
30 124 25 178 33 229 c 0
41 283 63 335 99 378 c 0
135 421 186 453 243 459 c 0
282 463 324 453 356 429 c 0
386 405 406 368 410 330 c 0
Z
Spiro
410 330 v
347 330 v
309 384 c
244 400 c
140 339 c
95 230 c
107 119 c
192 59 c
264 75 c
317 130 v
380 130 v
296 29 c
175 0 c
56 80 c
33 229 c
99 378 c
243 459 c
356 429 c
0 0 z
EndSpiro
EndSplineSet
        EndChar
StartChar: e
Encoding: 101 101 0
Width: 433
InSpiro: 1
        Flags: H
        LayerCount: 2
        Back
        SplineSet
58 210 m 0
58 214 l 0
357 214 l 0
364 229 370 245 373 262 c 0
375 278 376 295 372 311 c 0
364 338 344 361 320 375 c 0
294 388 264 393 236 390 c 0
191 384 149 360 119 328 c 0
88 295 68 254 61 211 c 0
54 170 59 126 82 92 c 0
104 58 142 36 182 33 c 0
214 30 247 39 276 57 c 0
305 74 328 101 344 132 c 0
349 132 l 0
333 99 308 72 278 54 c 0
249 36 214 27 181 30 c 0
140 33 100 55 78 90 c 0
54 125 49 170 57 212 c 0
64 256 86 297 117 330 c 0
148 363 189 387 235 393 c 0
264 396 295 391 322 377 c 0
347 362 367 339 375 312 c 0
379 295 379 277 377 261 c 0
374 243 368 226 361 210 c 0
361 210 l 0
58 210 l 0
Z
Spiro
58 210 v
58 214 v
357 214 v
373 262 c
372 311 c
320 375 c
236 390 c
119 328 c
61 211 c
82 92 c
182 33 c
276 57 c
344 132 v
349 132 v
278 54 c
181 30 c
78 90 c
57 212 c
117 330 c
235 393 c
322 377 c
375 312 c
377 261 c
361 210 v
361 210 v
0 0 z
EndSpiro
EndSplineSet
        Fore
        SplineSet
55 180 m 0
64 240 l 0
345 240 l 0
347 249 348 259 349 269 c 0
349 278 347 288 345 298 c 0
338 319 323 337 304 348 c 0
284 359 260 362 238 360 c 0
200 355 165 335 140 307 c 0
115 279 98 245 92 209 c 0
85 174 89 138 108 109 c 0
126 80 157 62 191 59 c 0
215 56 241 62 263 75 c 0
285 87 304 107 317 130 c 0
380 130 l 0
362 89 333 54 296 31 c 0
260 8 217 -3 176 0 c 0
128 4 82 29 56 69 c 0
28 109 21 161 30 210 c 0
38 261 64 309 100 347 c 0
136 385 184 412 237 419 c 0
272 423 309 416 341 399 c 0
371 381 395 353 406 321 c 0
413 298 414 273 411 250 c 0
407 225 399 201 388 180 c 0
388 180 l 0
55 180 l 0
Z
Spiro
55 180 v
64 240 v
345 240 v
349 269 c
345 298 c
304 348 c
238 360 c
140 307 c
92 209 c
108 109 c
191 59 c
263 75 c
317 130 v
380 130 v
296 31 c
176 0 c
56 69 c
30 210 c
100 347 c
237 419 c
341 399 c
406 321 c
411 250 c
388 180 v
388 180 v
0 0 z
EndSpiro
EndSplineSet
        EndChar
StartChar: f
Encoding: 102 102 0
Width: 283
InSpiro: 1
        Flags: H
        LayerCount: 2
        Back
        SplineSet
274 634 m 0
274 630 l 0
219 620 168 587 137 542 c 0
106 498 95 444 88 392 c 0
34 30 l 0
30 30 l 0
84 392 l 0
88 419 92 446 100 472 c 0
107 498 119 523 135 546 c 0
167 592 218 624 274 634 c 0
Z
84 390 m 0
84 394 l 0
238 394 l 0
238 390 l 0
84 390 l 0
Z
Spiro
274 634 v
274 630 v
137 542 c
88 392 [
34 30 v
30 30 v
84 392 ]
135 546 c
84 390 v
84 394 v
238 394 v
238 390 v
0 0 z
EndSpiro
EndSplineSet
        Fore
        SplineSet
310 660 m 0
301 600 l 0
249 597 199 570 168 530 c 0
152 510 141 487 134 463 c 0
126 439 122 414 119 390 c 0
61 0 l 0
-1 0 l 0
57 390 l 0
62 423 67 457 77 489 c 0
88 522 104 552 126 579 c 0
170 632 240 663 310 660 c 0
Z
53 360 m 0
62 420 l 0
274 420 l 0
265 360 l 0
53 360 l 0
Z
Spiro
310 660 v
301 600 v
168 530 c
119 390 [
61 0 v
-1 0 v
57 390 ]
126 579 c
53 360 v
62 420 v
274 420 v
265 360 v
0 0 z
EndSpiro
EndSplineSet
        EndChar
StartChar: g
Encoding: 103 103 0
Width: 433
InSpiro: 1
        Flags: H
        LayerCount: 2
        Back
        SplineSet
389 434 m 0
394 434 l 0
334 32 l 0
324 -30 313 -93 284 -150 c 0
269 -178 249 -205 225 -227 c 0
200 -248 170 -264 138 -269 c 0
105 -273 70 -266 44 -247 c 0
18 -227 2 -197 1 -166 c 0
5 -166 l 0
6 -196 21 -226 46 -245 c 0
71 -264 105 -270 137 -266 c 0
168 -261 198 -245 223 -224 c 0
247 -203 266 -176 281 -148 c 0
309 -92 319 -30 329 31 c 0
389 434 l 0
Z
379 330 m 0
374 330 l 0
370 360 353 388 329 407 c 0
304 425 272 432 242 430 c 0
193 425 149 397 119 360 c 0
89 323 71 278 64 232 c 0
56 188 58 141 80 103 c 0
100 65 139 38 182 33 c 0
214 29 248 38 277 56 c 0
306 74 330 102 344 134 c 0
349 134 l 0
334 100 309 71 279 53 c 0
249 35 214 25 181 30 c 0
137 35 98 62 77 101 c 0
55 140 52 187 60 232 c 0
67 279 85 324 116 362 c 0
147 400 191 428 241 433 c 0
272 435 306 428 332 409 c 0
357 390 374 361 379 330 c 0
Z
Spiro
389 434 v
394 434 v
334 32 ]
284 -150 c
138 -269 c
44 -247 c
1 -166 v
5 -166 v
46 -245 c
137 -266 c
281 -148 c
329 31 [
379 330 v
374 330 v
329 407 c
242 430 c
119 360 c
64 232 c
80 103 c
182 33 c
277 56 c
344 134 v
349 134 v
279 53 c
181 30 c
77 101 c
60 232 c
116 362 c
241 433 c
332 409 c
0 0 z
EndSpiro
EndSplineSet
        Fore
        SplineSet
367 460 m 0
430 460 l 0
365 30 l 0
354 -39 341 -109 308 -171 c 0
290 -202 267 -232 239 -255 c 0
211 -277 177 -294 141 -299 c 0
118 -302 95 -300 74 -294 c 0
52 -288 32 -277 16 -262 c 0
0 -246 -12 -227 -18 -205 c 0
-25 -184 -26 -161 -22 -140 c 0
40 -140 l 0
37 -153 37 -167 41 -180 c 0
45 -193 52 -205 62 -215 c 0
71 -224 84 -231 97 -236 c 0
110 -240 124 -241 138 -240 c 0
166 -237 193 -222 214 -202 c 0
235 -182 251 -157 263 -131 c 0
285 -80 293 -25 302 29 c 0
367 460 l 0
Z
406 300 m 0
343 300 l 0
346 326 336 355 317 374 c 0
297 392 269 401 243 400 c 0
222 398 202 391 184 381 c 0
166 370 151 355 139 339 c 0
115 307 101 268 95 230 c 0
88 192 88 152 106 119 c 0
114 102 126 88 140 78 c 0
155 67 173 60 191 59 c 0
220 55 250 65 274 84 c 0
298 102 315 130 322 160 c 0
385 160 l 0
374 112 346 68 308 39 c 0
270 10 222 -5 176 0 c 0
126 6 81 37 56 80 c 0
29 124 24 179 33 230 c 0
41 284 64 336 100 379 c 0
136 422 187 454 244 459 c 0
287 462 332 448 364 419 c 0
395 388 411 343 406 300 c 0
Z
Spiro
367 460 v
430 460 v
365 30 ]
308 -171 c
141 -299 c
16 -262 c
-22 -140 v
40 -140 v
62 -215 c
138 -240 c
263 -131 c
302 29 [
406 300 v
343 300 v
317 374 c
243 400 c
139 339 c
95 230 c
106 119 c
191 59 c
274 84 c
322 160 v
385 160 v
308 39 c
176 0 c
56 80 c
33 230 c
100 379 c
244 459 c
364 419 c
0 0 z
EndSpiro
EndSplineSet
        EndChar
StartChar: h
Encoding: 104 104 0
Width: 433
InSpiro: 1
        Flags: H
        LayerCount: 2
        Back
        SplineSet
34 30 m 0
30 30 l 0
120 634 l 0
124 634 l 0
34 30 l 0
Z
79 330 m 0
75 330 l 0
91 360 115 386 145 405 c 0
173 423 207 434 242 433 c 0
264 432 286 426 306 415 c 0
325 403 342 387 353 368 c 0
364 347 369 324 369 301 c 0
370 278 367 254 364 232 c 0
334 30 l 0
329 30 l 0
359 232 l 0
362 254 365 277 365 300 c 0
364 322 359 345 349 366 c 0
338 385 322 401 303 412 c 0
284 423 262 429 241 430 c 0
207 431 174 420 146 403 c 0
117 385 94 359 79 330 c 0
Z
Spiro
34 30 v
30 30 v
120 634 v
124 634 v
79 330 v
75 330 v
145 405 c
242 433 c
353 368 c
364 232 [
334 30 v
329 30 v
359 232 ]
349 366 c
241 430 c
146 403 c
0 0 z
EndSpiro
EndSplineSet
        Fore
        SplineSet
61 0 m 0
-1 0 l 0
98 660 l 0
160 660 l 0
61 0 l 0
Z
106 300 m 0
44 300 l 0
57 343 85 383 121 412 c 0
156 440 202 458 248 459 c 0
274 459 300 453 323 441 c 0
347 429 367 411 381 389 c 0
394 365 400 338 401 311 c 0
402 283 398 256 395 230 c 0
361 0 l 0
298 0 l 0
332 230 l 0
334 248 337 267 337 286 c 0
337 305 334 324 326 342 c 0
318 358 305 372 290 382 c 0
275 392 257 398 239 400 c 0
208 401 178 390 155 372 c 0
131 353 114 328 106 300 c 0
Z
Spiro
61 0 v
-1 0 v
98 660 v
160 660 v
106 300 v
44 300 v
121 412 c
248 459 c
381 389 c
395 230 [
361 0 v
298 0 v
332 230 ]
326 342 c
239 400 c
155 372 c
0 0 z
EndSpiro
EndSplineSet
        EndChar
StartChar: i
Encoding: 105 105 0
Width: 133
InSpiro: 1
        Flags: H
        LayerCount: 2
        Back
        SplineSet
90 434 m 0
94 434 l 0
34 30 l 0
30 30 l 0
90 434 l 0
Z
106 525 m 0
106 525 107 525 108 525 c 0
108 526 109 526 110 527 c 0
110 527 111 528 112 528 c 0
113 529 113 529 113 530 c 0
113 530 114 531 114 532 c 0
113 532 113 533 112 534 c 0
112 534 111 535 111 536 c 0
110 536 110 537 109 537 c 0
109 538 108 538 108 539 c 0
107 539 106 539 106 538 c 0
105 538 105 538 105 538 c 0
104 537 103 536 103 536 c 0
102 535 101 534 101 534 c 0
100 533 100 532 100 532 c 0
99 531 99 530 100 529 c 0
100 528 101 527 102 527 c 0
102 526 103 525 103 525 c 0
104 525 105 524 106 525 c 0
Z
Spiro
90 434 v
94 434 v
34 30 v
30 30 v
106 525 c
110 527 c
114 532 c
111 536 c
108 539 c
103 536 c
100 532 c
102 527 c
0 0 z
EndSpiro
EndSplineSet
        Fore
        SplineSet
68 460 m 0
130 460 l 0
61 0 l 0
-1 0 l 0
68 460 l 0
Z
104 495 m 0
113 495 121 499 129 505 c 0
136 511 142 520 144 530 c 0
145 538 142 547 137 554 c 0
131 560 122 564 114 565 c 0
104 565 95 560 88 554 c 0
81 547 75 539 74 530 c 0
73 525 73 521 74 516 c 0
75 512 77 508 80 505 c 0
82 501 86 498 90 497 c 0
94 495 99 494 104 495 c 0
Z
Spiro
68 460 v
130 460 v
61 0 v
-1 0 v
104 495 c
129 505 c
144 530 c
137 554 c
114 565 c
88 554 c
74 530 c
80 505 c
0 0 z
EndSpiro
EndSplineSet
        EndChar
StartChar: j
Encoding: 106 106 0
Width: 373
InSpiro: 1
        Flags: H
        LayerCount: 2
        Back
        SplineSet
329 434 m 0
334 434 l 0
274 32 l 0
265 -23 259 -79 243 -133 c 0
234 -161 222 -188 205 -213 c 0
188 -237 165 -257 138 -269 c 0
121 -275 102 -279 84 -278 c 0
66 -276 48 -270 34 -260 c 0
19 -249 8 -234 3 -218 c 0
-2 -201 -3 -183 1 -166 c 0
5 -166 l 0
0 -182 0 -200 6 -216 c 0
11 -232 22 -246 36 -257 c 0
50 -267 67 -273 85 -274 c 0
102 -276 120 -272 137 -266 c 0
163 -254 186 -234 202 -210 c 0
219 -187 230 -159 239 -132 c 0
254 -78 260 -23 269 31 c 0
329 434 l 0
Z
346 525 m 0
347 525 348 526 350 527 c 0
350 527 351 528 352 528 c 0
353 529 353 529 353 530 c 0
353 530 354 531 354 532 c 0
353 532 353 533 352 534 c 0
352 534 351 535 351 536 c 0
350 536 350 537 349 537 c 0
349 538 348 538 348 539 c 0
347 539 346 539 346 539 c 0
345 539 345 538 344 538 c 0
343 537 342 536 342 536 c 0
341 534 340 533 340 532 c 0
339 530 339 528 341 527 c 0
341 526 342 525 343 525 c 0
344 524 345 524 346 525 c 0
Z
Spiro
329 434 v
334 434 v
274 32 ]
243 -133 c
138 -269 c
34 -260 c
1 -166 v
5 -166 v
36 -257 c
137 -266 c
239 -132 c
269 31 [
346 525 c
350 527 c
354 532 c
351 536 c
348 539 c
342 536 c
340 532 c
341 527 c
0 0 z
EndSpiro
EndSplineSet
        Fore
        SplineSet
307 460 m 0
370 460 l 0
305 30 l 0
295 -30 287 -92 267 -150 c 0
256 -180 242 -209 222 -235 c 0
203 -261 178 -283 149 -297 c 0
125 -307 99 -312 73 -310 c 0
47 -308 22 -298 3 -281 c 0
-16 -264 -29 -240 -34 -214 c 0
-38 -189 -34 -162 -22 -140 c 0
40 -140 l 0
31 -152 27 -168 28 -183 c 0
30 -198 36 -212 47 -224 c 0
57 -234 71 -242 85 -245 c 0
100 -248 115 -246 130 -242 c 0
155 -233 175 -214 190 -192 c 0
204 -170 213 -144 219 -119 c 0
230 -70 234 -20 242 29 c 0
307 460 l 0
Z
344 495 m 0
353 495 361 499 369 505 c 0
376 511 382 520 384 530 c 0
385 538 382 547 377 554 c 0
371 560 362 564 354 565 c 0
344 565 335 560 328 554 c 0
321 547 315 539 314 530 c 0
313 525 313 521 314 516 c 0
315 512 317 508 320 505 c 0
322 501 326 498 330 497 c 0
334 495 339 494 344 495 c 0
Z
Spiro
307 460 v
370 460 v
305 30 ]
267 -150 c
149 -297 c
3 -281 c
-22 -140 v
40 -140 v
47 -224 c
130 -242 c
219 -119 c
242 29 [
344 495 c
369 505 c
384 530 c
377 554 c
354 565 c
328 554 c
314 530 c
320 505 c
0 0 z
EndSpiro
EndSplineSet
        EndChar
StartChar: k
Encoding: 107 107 0
Width: 373
InSpiro: 1
        Flags: H
        LayerCount: 2
        Back
        SplineSet
120 634 m 0
124 634 l 0
34 30 l 0
30 30 l 0
120 634 l 0
Z
328 394 m 0
328 390 l 0
62 212 l 0
274 34 l 0
274 30 l 0
57 210 l 0
57 214 l 0
328 394 l 0
Z
Spiro
120 634 v
124 634 v
34 30 v
30 30 v
328 394 v
328 390 v
62 212 v
274 34 v
274 30 v
57 210 v
57 214 v
0 0 z
EndSpiro
EndSplineSet
        Fore
        SplineSet
98 660 m 0
160 660 l 0
61 0 l 0
-1 0 l 0
98 660 l 0
Z
364 420 m 0
355 360 l 0
112 210 l 0
310 60 l 0
301 0 l 0
26 180 l 0
35 240 l 0
364 420 l 0
Z
Spiro
98 660 v
160 660 v
61 0 v
-1 0 v
364 420 v
355 360 v
112 210 v
310 60 v
301 0 v
26 180 v
35 240 v
0 0 z
EndSpiro
EndSplineSet
        EndChar
StartChar: l
Encoding: 108 108 0
Width: 283
InSpiro: 1
        Flags: H
        LayerCount: 2
        Back
        SplineSet
120 634 m 0
124 634 l 0
64 232 l 0
60 208 57 185 57 162 c 0
57 139 61 115 72 95 c 0
82 74 98 57 118 47 c 0
138 36 161 31 184 34 c 0
184 30 l 0
161 27 137 32 116 43 c 0
96 54 79 71 69 92 c 0
57 113 53 137 53 160 c 0
53 184 56 208 60 232 c 0
120 634 l 0
Z
Spiro
120 634 v
124 634 v
64 232 ]
72 95 c
184 34 v
184 30 v
69 92 c
60 232 [
0 0 z
EndSpiro
EndSplineSet
        Fore
        SplineSet
98 660 m 0
160 660 l 0
95 230 l 0
91 208 88 186 89 164 c 0
89 142 94 120 106 102 c 0
117 83 135 68 155 61 c 0
176 53 199 53 220 60 c 0
211 0 l 0
182 -11 150 -12 121 -2 c 0
92 6 66 26 50 52 c 0
33 77 26 108 25 138 c 0
23 169 28 199 33 230 c 0
98 660 l 0
Z
Spiro
98 660 v
160 660 v
95 230 ]
106 102 c
220 60 v
211 0 v
50 52 c
33 230 [
0 0 z
EndSpiro
EndSplineSet
        EndChar
StartChar: m
Encoding: 109 109 0
Width: 613
InSpiro: 1
        Flags: H
        LayerCount: 2
        Back
        SplineSet
90 434 m 0
94 434 l 0
34 30 l 0
30 30 l 0
90 434 l 0
Z
34 30 m 0
30 30 l 0
75 334 l 0
75 334 l 0
83 370 106 402 138 422 c 0
153 431 170 438 188 440 c 0
206 442 225 440 242 433 c 0
258 425 273 413 283 398 c 0
294 383 301 365 306 348 c 0
314 310 309 270 304 232 c 0
274 30 l 0
269 30 l 0
299 232 l 0
304 269 309 308 302 346 c 0
298 363 291 380 281 395 c 0
271 410 257 422 241 430 c 0
224 437 206 439 188 437 c 0
170 434 153 427 139 418 c 0
108 398 86 365 79 330 c 0
34 30 l 0
Z
274 30 m 0
269 30 l 0
306 282 l 0
309 304 313 326 321 347 c 0
329 368 341 388 358 404 c 0
374 419 393 431 415 437 c 0
437 443 461 442 482 433 c 0
498 425 513 413 523 398 c 0
534 383 541 365 546 348 c 0
554 310 549 270 544 232 c 0
514 30 l 0
509 30 l 0
539 232 l 0
544 269 549 308 542 346 c 0
538 363 531 380 521 395 c 0
511 410 497 422 481 430 c 0
461 438 437 439 416 434 c 0
395 428 376 416 361 401 c 0
345 385 333 366 325 346 c 0
317 325 314 303 311 282 c 0
274 30 l 0
Z
Spiro
90 434 v
94 434 v
34 30 v
30 30 v
34 30 v
30 30 v
75 334 v
75 334 v
138 422 c
242 433 c
306 348 c
304 232 [
274 30 v
269 30 v
299 232 ]
302 346 c
241 430 c
139 418 c
79 330 v
274 30 v
269 30 v
306 282 ]
358 404 c
482 433 c
546 348 c
544 232 [
514 30 v
509 30 v
539 232 ]
542 346 c
481 430 c
361 401 c
311 282 [
0 0 z
EndSpiro
EndSplineSet
        Fore
        SplineSet
68 460 m 0
130 460 l 0
61 0 l 0
-1 0 l 0
68 460 l 0
Z
61 0 m 0
-1 0 l 0
53 360 l 0
53 360 l 0
69 399 101 432 140 451 c 0
158 459 178 465 198 467 c 0
219 468 240 465 259 457 c 0
278 448 295 434 308 418 c 0
321 401 330 382 336 362 c 0
347 319 341 273 335 230 c 0
301 0 l 0
238 0 l 0
272 230 l 0
276 262 281 295 277 328 c 0
274 343 269 358 261 371 c 0
253 384 242 395 228 402 c 0
214 407 199 409 185 406 c 0
170 403 157 397 146 388 c 0
123 369 108 341 107 313 c 0
61 0 l 0
Z
301 0 m 0
238 0 l 0
280 280 l 0
284 307 288 335 299 360 c 0
309 386 325 410 346 429 c 0
366 447 391 460 418 466 c 0
445 471 473 469 499 458 c 0
518 449 535 435 548 419 c 0
561 402 570 383 576 363 c 0
587 319 581 274 575 230 c 0
541 0 l 0
478 0 l 0
512 230 l 0
516 262 522 295 518 328 c 0
515 343 511 358 502 371 c 0
494 384 482 395 468 401 c 0
452 407 433 406 417 400 c 0
401 394 387 384 377 371 c 0
366 358 358 343 353 328 c 0
348 312 345 296 343 280 c 0
301 0 l 0
Z
Spiro
68 460 v
130 460 v
61 0 v
-1 0 v
61 0 v
-1 0 v
53 360 v
53 360 v
140 451 c
259 457 c
336 362 c
335 230 [
301 0 v
238 0 v
272 230 ]
277 328 c
228 402 c
146 388 c
107 313 v
301 0 v
238 0 v
280 280 ]
346 429 c
499 458 c
576 363 c
575 230 [
541 0 v
478 0 v
512 230 ]
518 328 c
468 401 c
377 371 c
343 280 [
0 0 z
EndSpiro
EndSplineSet
        EndChar
StartChar: n
Encoding: 110 110 0
Width: 373
InSpiro: 1
        Flags: H
        LayerCount: 2
        Back
        SplineSet
90 434 m 0
94 434 l 0
34 30 l 0
30 30 l 0
90 434 l 0
Z
34 30 m 0
30 30 l 0
75 334 l 0
75 334 l 0
83 370 106 402 138 422 c 0
153 431 170 438 188 440 c 0
206 442 225 440 242 433 c 0
258 425 273 413 283 398 c 0
294 383 301 365 306 348 c 0
314 310 309 270 304 232 c 0
274 30 l 0
269 30 l 0
299 232 l 0
304 269 309 308 302 346 c 0
298 363 291 380 281 395 c 0
271 410 257 422 241 430 c 0
224 437 206 439 188 437 c 0
170 434 153 427 139 418 c 0
108 398 86 365 79 330 c 0
34 30 l 0
Z
Spiro
90 434 v
94 434 v
34 30 v
30 30 v
34 30 v
30 30 v
75 334 v
75 334 v
138 422 c
242 433 c
306 348 c
304 232 [
274 30 v
269 30 v
299 232 ]
302 346 c
241 430 c
139 418 c
79 330 v
0 0 z
EndSpiro
EndSplineSet
        Fore
        SplineSet
68 460 m 0
130 460 l 0
61 0 l 0
-1 0 l 0
68 460 l 0
Z
61 0 m 0
-1 0 l 0
53 360 l 0
53 360 l 0
69 399 101 432 140 451 c 0
158 459 178 465 198 467 c 0
219 468 240 465 259 457 c 0
278 448 295 434 308 418 c 0
321 401 330 382 336 362 c 0
347 319 341 273 335 230 c 0
301 0 l 0
238 0 l 0
272 230 l 0
276 262 281 295 277 328 c 0
274 343 269 358 261 371 c 0
253 384 242 395 228 402 c 0
214 407 199 409 185 406 c 0
170 403 157 397 146 388 c 0
123 369 108 341 107 313 c 0
61 0 l 0
Z
Spiro
68 460 v
130 460 v
61 0 v
-1 0 v
61 0 v
-1 0 v
53 360 v
53 360 v
140 451 c
259 457 c
336 362 c
335 230 [
301 0 v
238 0 v
272 230 ]
277 328 c
228 402 c
146 388 c
107 313 v
0 0 z
EndSpiro
EndSplineSet
        EndChar
StartChar: o
Encoding: 111 111 0
Width: 433
InSpiro: 1
        Flags: H
        LayerCount: 2
        Back
        SplineSet
241 430 m 0
216 431 191 424 170 411 c 0
148 399 130 381 116 362 c 0
87 324 71 278 64 232 c 0
60 209 58 187 59 165 c 0
61 142 66 120 77 101 c 0
87 81 101 65 120 53 c 0
138 41 159 34 181 34 c 0
205 33 229 40 250 52 c 0
271 64 289 80 304 100 c 0
333 137 351 184 359 232 c 0
366 276 364 323 343 363 c 0
332 381 318 397 300 409 c 0
283 421 262 428 241 430 c 0
Z
364 231 m 0
356 182 338 135 308 97 c 0
292 77 274 60 252 48 c 0
231 36 206 29 182 30 c 0
159 30 138 37 119 49 c 0
101 61 85 77 75 97 c 0
63 117 58 139 56 162 c 0
54 185 56 208 60 231 c 0
68 279 85 326 115 365 c 0
130 384 148 402 170 415 c 0
191 427 216 435 242 434 c 0
264 433 285 425 304 413 c 0
322 401 337 384 348 365 c 0
369 324 371 276 364 231 c 0
Z
Spiro
241 430 c
116 362 c
64 232 c
77 101 c
181 34 c
304 100 c
359 232 c
343 363 c
364 231 c
308 97 c
182 30 c
75 97 c
60 231 c
115 365 c
242 434 c
348 365 c
0 0 z
EndSpiro
EndSplineSet
        Fore
        SplineSet
239 400 m 0
218 400 198 394 180 383 c 0
163 373 148 357 137 341 c 0
114 308 101 269 95 230 c 0
88 192 86 153 103 119 c 0
110 102 122 88 137 77 c 0
152 67 169 60 188 60 c 0
208 59 228 65 245 76 c 0
262 86 277 101 289 118 c 0
312 150 325 190 332 230 c 0
338 267 339 306 323 341 c 0
315 357 303 371 289 382 c 0
274 392 256 399 239 400 c 0
Z
395 229 m 0
385 172 363 118 327 75 c 0
308 53 286 34 261 20 c 0
236 7 208 0 180 0 c 0
154 0 129 8 107 21 c 0
85 34 67 53 54 75 c 0
40 97 32 123 29 149 c 0
27 176 28 202 33 229 c 0
42 284 63 339 99 383 c 0
117 405 139 425 165 439 c 0
190 453 219 461 249 460 c 0
274 458 299 451 321 437 c 0
342 424 361 405 374 383 c 0
400 337 403 281 395 229 c 0
Z
Spiro
239 400 c
137 341 c
95 230 c
103 119 c
188 60 c
289 118 c
332 230 c
323 341 c
395 229 c
327 75 c
180 0 c
54 75 c
33 229 c
99 383 c
249 460 c
374 383 c
0 0 z
EndSpiro
EndSplineSet
        EndChar
StartChar: p
Encoding: 112 112 0
Width: 433
InSpiro: 1
        Flags: H
        LayerCount: 2
        Back
        SplineSet
84 394 m 0
88 394 l 0
-11 -270 l 0
-15 -270 l 0
84 394 l 0
Z
73 290 m 0
69 290 l 0
83 321 107 349 137 368 c 0
166 386 201 396 236 393 c 0
276 389 315 366 338 332 c 0
361 297 367 252 361 211 c 0
353 165 332 123 301 90 c 0
269 57 227 33 182 30 c 0
149 27 115 35 90 55 c 0
65 73 48 103 45 134 c 0
49 134 l 0
52 103 68 75 93 57 c 0
117 38 150 30 181 33 c 0
225 36 267 59 298 92 c 0
328 124 349 167 356 212 c 0
362 252 356 295 334 330 c 0
312 363 274 386 235 390 c 0
201 393 167 383 139 365 c 0
110 346 87 320 73 290 c 0
Z
Spiro
84 394 v
88 394 v
-11 -270 v
-15 -270 v
73 290 v
69 290 v
137 368 c
236 393 c
338 332 c
361 211 c
301 90 c
182 30 c
90 55 c
45 134 v
49 134 v
93 57 c
181 33 c
298 92 c
356 212 c
334 330 c
235 390 c
139 365 c
0 0 z
EndSpiro
EndSplineSet
        Fore
        SplineSet
62 420 m 0
124 420 l 0
16 -300 l 0
-46 -300 l 0
62 420 l 0
Z
100 260 m 0
38 260 l 0
49 305 76 347 113 377 c 0
149 406 197 423 244 419 c 0
291 414 337 388 364 349 c 0
391 308 399 257 392 209 c 0
384 156 359 106 322 68 c 0
285 29 235 3 182 0 c 0
138 -2 93 11 63 42 c 0
32 72 16 117 23 160 c 0
85 160 l 0
80 132 90 104 110 85 c 0
129 66 157 57 185 59 c 0
222 61 257 81 282 109 c 0
307 136 323 172 329 210 c 0
334 243 330 279 312 309 c 0
294 337 263 356 231 360 c 0
200 362 170 351 147 333 c 0
124 314 107 288 100 260 c 0
Z
Spiro
62 420 v
124 420 v
16 -300 v
-46 -300 v
100 260 v
38 260 v
113 377 c
244 419 c
364 349 c
392 209 c
322 68 c
182 0 c
63 42 c
23 160 v
85 160 v
110 85 c
185 59 c
282 109 c
329 210 c
312 309 c
231 360 c
147 333 c
0 0 z
EndSpiro
EndSplineSet
        EndChar
StartChar: q
Encoding: 113 113 0
Width: 433
InSpiro: 1
        Flags: H
        LayerCount: 2
        Back
        SplineSet
383 394 m 0
388 394 l 0
289 -270 l 0
284 -270 l 0
383 394 l 0
Z
373 290 m 0
368 290 l 0
363 319 346 346 323 365 c 0
298 383 266 391 236 390 c 0
190 387 148 363 118 330 c 0
88 297 68 255 61 212 c 0
54 170 59 126 82 92 c 0
104 58 142 36 182 33 c 0
215 30 248 39 277 57 c 0
306 75 329 102 344 134 c 0
349 134 l 0
333 101 308 72 278 54 c 0
249 36 214 26 181 30 c 0
140 33 101 56 79 90 c 0
55 124 50 169 57 211 c 0
64 255 84 297 115 331 c 0
146 365 188 389 235 393 c 0
266 395 299 386 325 368 c 0
350 349 367 320 373 290 c 0
Z
Spiro
383 394 v
388 394 v
289 -270 v
284 -270 v
373 290 v
368 290 v
323 365 c
236 390 c
118 330 c
61 212 c
82 92 c
182 33 c
277 57 c
344 134 v
349 134 v
278 54 c
181 30 c
79 90 c
57 211 c
115 331 c
235 393 c
325 368 c
0 0 z
EndSpiro
EndSplineSet
        Fore
        SplineSet
361 420 m 0
424 420 l 0
316 -300 l 0
253 -300 l 0
361 420 l 0
Z
400 260 m 0
337 260 l 0
338 286 328 314 309 333 c 0
289 351 262 360 236 360 c 0
217 359 198 353 181 344 c 0
165 335 150 323 138 309 c 0
113 281 98 246 92 210 c 0
86 175 89 138 108 109 c 0
125 80 156 61 190 59 c 0
219 56 248 67 272 85 c 0
296 103 314 130 322 160 c 0
385 160 l 0
373 113 346 70 308 41 c 0
271 12 223 -3 177 0 c 0
129 4 83 29 57 69 c 0
29 109 22 160 30 209 c 0
38 261 62 310 99 349 c 0
135 387 185 415 239 419 c 0
281 421 326 406 357 377 c 0
387 347 404 302 400 260 c 0
Z
Spiro
361 420 v
424 420 v
316 -300 v
253 -300 v
400 260 v
337 260 v
309 333 c
236 360 c
138 309 c
92 210 c
108 109 c
190 59 c
272 85 c
322 160 v
385 160 v
308 41 c
177 0 c
57 69 c
30 209 c
99 349 c
239 419 c
357 377 c
0 0 z
EndSpiro
EndSplineSet
        EndChar
StartChar: r
Encoding: 114 114 0
Width: 373
InSpiro: 1
        Flags: H
        LayerCount: 2
        Back
        SplineSet
34 30 m 0
30 30 l 0
90 434 l 0
94 434 l 0
34 30 l 0
Z
86 380 m 0
82 380 l 0
101 403 127 421 157 431 c 0
184 440 214 442 242 433 c 0
263 425 282 411 296 394 c 0
309 375 317 352 319 330 c 0
314 330 l 0
313 352 305 374 292 392 c 0
279 409 261 422 241 430 c 0
214 439 184 437 158 429 c 0
130 419 104 402 86 380 c 0
Z
Spiro
34 30 v
30 30 v
90 434 v
94 434 v
86 380 v
82 380 v
157 431 c
242 433 c
296 394 c
319 330 v
314 330 v
292 392 c
241 430 c
158 429 c
0 0 z
EndSpiro
EndSplineSet
        Fore
        SplineSet
61 0 m 0
-1 0 l 0
68 460 l 0
130 460 l 0
61 0 l 0
Z
113 350 m 0
51 350 l 0
68 389 99 422 137 443 c 0
173 462 217 470 257 458 c 0
287 448 314 426 331 398 c 0
347 368 353 333 346 300 c 0
283 300 l 0
288 320 286 343 276 363 c 0
266 380 249 395 230 401 c 0
208 407 185 404 165 395 c 0
143 385 125 369 113 350 c 0
Z
Spiro
61 0 v
-1 0 v
68 460 v
130 460 v
113 350 v
51 350 v
137 443 c
257 458 c
331 398 c
346 300 v
283 300 v
276 363 c
230 401 c
165 395 c
0 0 z
EndSpiro
EndSplineSet
        EndChar
StartChar: s
Encoding: 115 115 0
Width: 433
InSpiro: 1
        Flags: H
        LayerCount: 2
        Back
        SplineSet
373 292 m 0
368 292 l 0
351 323 324 350 293 368 c 0
260 385 222 392 186 390 c 0
159 387 133 380 112 366 c 0
101 358 91 349 84 338 c 0
77 327 73 314 74 302 c 0
74 287 81 274 90 263 c 0
99 252 112 244 125 238 c 0
151 225 180 219 209 213 c 0
238 208 267 202 293 188 c 0
306 181 317 172 327 161 c 0
336 149 344 136 347 122 c 0
347 108 343 94 336 82 c 0
328 71 318 61 307 54 c 0
284 39 258 32 232 30 c 0
193 26 153 33 119 53 c 0
86 70 60 98 45 132 c 0
49 132 l 0
64 99 89 72 121 55 c 0
154 36 193 29 231 33 c 0
256 35 281 42 303 56 c 0
314 63 324 72 331 83 c 0
338 94 342 107 342 121 c 0
340 135 334 148 324 158 c 0
315 169 303 177 291 184 c 0
265 197 236 204 208 210 c 0
178 214 149 220 123 234 c 0
110 241 98 250 89 261 c 0
79 273 72 286 70 301 c 0
69 314 73 328 80 339 c 0
87 350 97 360 109 368 c 0
131 383 158 390 185 393 c 0
223 396 263 388 297 370 c 0
329 352 356 324 373 292 c 0
Z
Spiro
373 292 v
368 292 v
293 368 c
186 390 c
112 366 c
74 302 c
125 238 c
209 213 a
257 200 c
347 122 c
307 54 c
232 30 c
119 53 c
45 132 v
49 132 v
121 55 c
231 33 c
303 56 c
342 121 c
291 184 c
208 210 a
159 222 c
70 301 c
109 368 c
185 393 c
297 370 c
0 0 z
EndSpiro
EndSplineSet
        Fore
        SplineSet
413 350 m 0
404 290 l 0
375 315 341 334 305 347 c 0
267 359 226 363 187 360 c 0
169 358 150 354 135 346 c 0
127 341 119 336 114 328 c 0
109 321 105 312 106 304 c 0
106 298 107 292 110 287 c 0
112 281 116 277 120 273 c 0
129 265 140 259 151 256 c 0
173 247 198 244 222 239 c 0
255 232 290 223 319 205 c 0
333 195 347 184 357 170 c 0
368 157 375 141 379 124 c 0
380 106 374 88 365 73 c 0
356 58 343 46 329 36 c 0
300 16 267 5 233 0 c 0
191 -6 148 -3 109 9 c 0
71 20 36 42 9 70 c 0
18 130 l 0
45 103 78 83 115 71 c 0
153 58 194 54 234 59 c 0
251 60 268 64 284 72 c 0
292 76 300 81 305 89 c 0
311 96 315 105 315 115 c 0
314 120 313 126 310 131 c 0
307 136 303 141 299 145 c 0
290 152 279 157 269 162 c 0
246 170 222 175 199 180 c 0
164 185 130 194 101 213 c 0
87 222 74 234 63 248 c 0
53 261 46 278 43 295 c 0
42 312 47 329 56 344 c 0
65 359 77 371 92 382 c 0
119 402 153 414 188 419 c 0
229 424 271 421 311 409 c 0
348 397 383 376 413 350 c 0
Z
Spiro
413 350 v
404 290 v
305 347 c
187 360 c
135 346 c
106 304 c
151 256 c
222 239 a
270 226 c
379 124 c
329 36 c
233 0 c
109 9 c
9 70 v
18 130 v
115 71 c
234 59 c
284 72 c
315 115 c
269 162 c
199 180 a
150 192 c
43 295 c
92 382 c
188 419 c
311 409 c
0 0 z
EndSpiro
EndSplineSet
        EndChar
StartChar: t
Encoding: 116 116 0
Width: 283
InSpiro: 1
        Flags: H
        LayerCount: 2
        Back
        SplineSet
120 634 m 0
124 634 l 0
64 232 l 0
60 208 57 185 57 162 c 0
57 139 61 115 72 95 c 0
82 74 98 57 118 47 c 0
138 36 161 31 184 34 c 0
184 30 l 0
161 27 137 32 116 43 c 0
96 54 79 71 69 92 c 0
57 113 53 137 53 160 c 0
53 184 56 208 60 232 c 0
120 634 l 0
Z
90 430 m 0
90 434 l 0
244 434 l 0
244 430 l 0
90 430 l 0
Z
Spiro
120 634 v
124 634 v
64 232 ]
72 95 c
184 34 v
184 30 v
69 92 c
60 232 [
90 430 v
90 434 v
244 434 v
244 430 v
0 0 z
EndSpiro
EndSplineSet
        Fore
        SplineSet
98 660 m 0
160 660 l 0
95 230 l 0
91 208 88 186 89 164 c 0
89 142 94 120 106 102 c 0
117 83 135 68 155 61 c 0
176 53 199 53 220 60 c 0
211 0 l 0
182 -11 150 -12 121 -2 c 0
92 6 66 26 50 52 c 0
33 77 26 108 25 138 c 0
23 169 28 199 33 230 c 0
98 660 l 0
Z
59 400 m 0
68 460 l 0
280 460 l 0
271 400 l 0
59 400 l 0
Z
Spiro
98 660 v
160 660 v
95 230 ]
106 102 c
220 60 v
211 0 v
50 52 c
33 230 [
59 400 v
68 460 v
280 460 v
271 400 v
0 0 z
EndSpiro
EndSplineSet
        EndChar
StartChar: u
Encoding: 117 117 0
Width: 373
InSpiro: 1
        Flags: H
        LayerCount: 2
        Back
        SplineSet
274 30 m 0
269 30 l 0
323 394 l 0
328 394 l 0
274 30 l 0
Z
284 134 m 0
289 134 l 0
282 108 268 84 250 66 c 0
231 47 207 34 182 30 c 0
160 25 137 27 116 36 c 0
96 44 78 59 67 79 c 0
55 98 51 121 50 144 c 0
50 166 53 189 57 212 c 0
84 394 l 0
88 394 l 0
61 212 l 0
57 190 54 168 54 145 c 0
54 123 58 101 70 82 c 0
80 63 97 48 117 39 c 0
137 31 159 29 181 33 c 0
205 37 229 50 247 68 c 0
265 85 278 109 284 134 c 0
Z
Spiro
274 30 v
269 30 v
323 394 v
328 394 v
284 134 v
289 134 v
250 66 c
182 30 c
67 79 c
57 212 [
84 394 v
88 394 v
61 212 ]
70 82 c
181 33 c
247 68 c
0 0 z
EndSpiro
EndSplineSet
        Fore
        SplineSet
301 0 m 0
238 0 l 0
301 420 l 0
364 420 l 0
301 0 l 0
Z
262 160 m 0
325 160 l 0
320 122 305 86 281 58 c 0
256 29 222 7 186 0 c 0
159 -5 132 -4 107 4 c 0
82 13 59 29 45 52 c 0
30 74 23 102 22 129 c 0
21 156 25 183 30 210 c 0
62 420 l 0
124 420 l 0
92 210 l 0
89 192 86 174 86 156 c 0
85 139 88 121 96 105 c 0
103 89 116 76 131 68 c 0
146 60 163 57 181 59 c 0
204 61 227 74 242 94 c 0
256 112 263 136 262 160 c 0
Z
Spiro
301 0 v
238 0 v
301 420 v
364 420 v
262 160 v
325 160 v
281 58 c
186 0 c
45 52 c
30 210 [
62 420 v
124 420 v
92 210 ]
96 105 c
181 59 c
242 94 c
0 0 z
EndSpiro
EndSplineSet
        EndChar
StartChar: v
Encoding: 118 118 0
Width: 433
InSpiro: 1
        Flags: H
        LayerCount: 2
        Back
        SplineSet
84 394 m 0
88 394 l 0
183 37 l 0
383 394 l 0
388 394 l 0
184 30 l 0
179 30 l 0
84 394 l 0
Z
Spiro
84 394 v
88 394 v
183 37 v
383 394 v
388 394 v
184 30 v
179 30 v
0 0 z
EndSpiro
EndSplineSet
        Fore
        SplineSet
62 420 m 0
124 420 l 0
196 107 l 0
361 420 l 0
424 420 l 0
211 0 l 0
148 0 l 0
62 420 l 0
Z
Spiro
62 420 v
124 420 v
196 107 v
361 420 v
424 420 v
211 0 v
148 0 v
0 0 z
EndSpiro
EndSplineSet
        EndChar
StartChar: w
Encoding: 119 119 0
Width: 613
InSpiro: 1
        Flags: H
        LayerCount: 2
        Back
        SplineSet
90 434 m 0
94 434 l 0
153 38 l 0
329 434 l 0
334 434 l 0
393 38 l 0
569 434 l 0
574 434 l 0
394 30 l 0
389 30 l 0
331 425 l 0
154 30 l 0
149 30 l 0
90 434 l 0
Z
Spiro
90 434 v
94 434 v
153 38 v
329 434 v
334 434 v
393 38 v
569 434 v
574 434 v
394 30 v
389 30 v
331 425 v
154 30 v
149 30 v
0 0 z
EndSpiro
EndSplineSet
        Fore
        SplineSet
68 460 m 0
130 460 l 0
170 134 l 0
307 460 l 0
370 460 l 0
410 134 l 0
547 460 l 0
610 460 l 0
421 0 l 0
358 0 l 0
318 325 l 0
181 0 l 0
118 0 l 0
68 460 l 0
Z
Spiro
68 460 v
130 460 v
170 134 v
307 460 v
370 460 v
410 134 v
547 460 v
610 460 v
421 0 v
358 0 v
318 325 v
181 0 v
118 0 v
0 0 z
EndSpiro
EndSplineSet
        EndChar
StartChar: x
Encoding: 120 120 0
Width: 433
InSpiro: 1
        Flags: H
        LayerCount: 2
        Back
        SplineSet
84 394 m 0
88 394 l 0
334 30 l 0
329 30 l 0
84 394 l 0
Z
383 394 m 0
388 394 l 0
34 30 l 0
30 30 l 0
383 394 l 0
Z
Spiro
84 394 v
88 394 v
334 30 v
329 30 v
383 394 v
388 394 v
34 30 v
30 30 v
0 0 z
EndSpiro
EndSplineSet
        Fore
        SplineSet
62 420 m 0
124 420 l 0
361 0 l 0
298 0 l 0
62 420 l 0
Z
361 420 m 0
424 420 l 0
61 0 l 0
-1 0 l 0
361 420 l 0
Z
Spiro
62 420 v
124 420 v
361 0 v
298 0 v
361 420 v
424 420 v
61 0 v
-1 0 v
0 0 z
EndSpiro
EndSplineSet
        EndChar
StartChar: y
Encoding: 121 121 0
Width: 433
InSpiro: 1
        Flags: H
        LayerCount: 2
        Back
        SplineSet
389 434 m 0
394 434 l 0
334 32 l 0
324 -30 313 -93 284 -150 c 0
269 -178 249 -205 225 -227 c 0
200 -248 170 -264 138 -269 c 0
105 -273 70 -266 44 -247 c 0
18 -227 2 -197 1 -166 c 0
5 -166 l 0
6 -196 21 -226 46 -245 c 0
71 -264 105 -270 137 -266 c 0
168 -261 198 -245 223 -224 c 0
247 -203 266 -176 281 -148 c 0
309 -92 319 -30 329 31 c 0
389 434 l 0
Z
90 434 m 0
94 434 l 0
64 232 l 0
60 209 57 186 57 163 c 0
57 140 62 117 73 97 c 0
83 77 99 61 118 50 c 0
137 39 159 34 182 34 c 0
206 33 230 39 252 50 c 0
274 61 293 77 309 97 c 0
324 115 335 137 343 160 c 0
351 183 355 207 359 232 c 0
389 434 l 0
394 434 l 0
364 232 l 0
360 207 356 182 348 159 c 0
339 135 327 113 312 94 c 0
296 74 276 58 254 47 c 0
231 36 206 29 182 30 c 0
159 30 136 35 116 46 c 0
96 57 79 73 69 94 c 0
57 114 53 138 53 161 c 0
53 185 56 208 60 232 c 0
90 434 l 0
Z
Spiro
389 434 v
394 434 v
334 32 ]
284 -150 c
138 -269 c
44 -247 c
1 -166 v
5 -166 v
46 -245 c
137 -266 c
281 -148 c
329 31 [
90 434 v
94 434 v
64 232 ]
73 97 c
182 34 c
309 97 c
359 232 [
389 434 v
394 434 v
364 232 ]
312 94 c
182 30 c
69 94 c
60 232 [
0 0 z
EndSpiro
EndSplineSet
        Fore
        SplineSet
367 460 m 0
430 460 l 0
365 30 l 0
354 -39 341 -109 308 -171 c 0
290 -202 267 -232 239 -255 c 0
211 -277 177 -294 141 -299 c 0
118 -302 95 -300 74 -294 c 0
52 -288 32 -277 16 -262 c 0
0 -246 -12 -227 -18 -205 c 0
-25 -184 -26 -161 -22 -140 c 0
40 -140 l 0
37 -153 37 -167 41 -180 c 0
45 -193 52 -205 62 -215 c 0
71 -224 84 -231 97 -236 c 0
110 -240 124 -241 138 -240 c 0
166 -237 193 -222 214 -202 c 0
235 -182 251 -157 263 -131 c 0
285 -80 293 -25 302 29 c 0
367 460 l 0
Z
68 460 m 0
130 460 l 0
95 230 l 0
92 210 89 191 89 172 c 0
88 153 91 133 100 116 c 0
107 99 120 85 136 75 c 0
152 65 170 60 189 60 c 0
209 59 229 65 247 76 c 0
264 86 279 100 292 117 c 0
303 133 313 151 319 170 c 0
325 190 328 210 332 230 c 0
367 460 l 0
430 460 l 0
395 230 l 0
390 201 385 172 376 145 c 0
366 118 351 92 333 71 c 0
294 27 237 0 180 0 c 0
153 0 126 5 103 17 c 0
79 29 59 48 46 71 c 0
32 94 26 121 25 149 c 0
24 176 28 203 33 230 c 0
68 460 l 0
Z
Spiro
367 460 v
430 460 v
365 30 ]
308 -171 c
141 -299 c
16 -262 c
-22 -140 v
40 -140 v
62 -215 c
138 -240 c
263 -131 c
302 29 [
68 460 v
130 460 v
95 230 ]
100 116 c
189 60 c
292 117 c
332 230 [
367 460 v
430 460 v
395 230 ]
333 71 c
180 0 c
46 71 c
33 230 [
0 0 z
EndSpiro
EndSplineSet
        EndChar
StartChar: z
Encoding: 122 122 0
Width: 433
InSpiro: 1
        Flags: H
        LayerCount: 2
        Back
        SplineSet
90 430 m 0
90 434 l 0
394 434 l 0
394 434 l 0
36 34 l 0
334 34 l 0
334 30 l 0
30 30 l 0
30 30 l 0
387 430 l 0
90 430 l 0
Z
Spiro
90 430 v
90 434 v
394 434 v
394 434 v
36 34 v
334 34 v
334 30 v
30 30 v
30 30 v
387 430 v
0 0 z
EndSpiro
EndSplineSet
        Fore
        SplineSet
59 400 m 0
68 460 l 0
430 460 l 0
430 460 l 0
100 60 l 0
370 60 l 0
361 0 l 0
-1 0 l 0
-1 0 l 0
328 400 l 0
59 400 l 0
Z
Spiro
59 400 v
68 460 v
430 460 v
430 460 v
100 60 v
370 60 v
361 0 v
-1 0 v
-1 0 v
328 400 v
0 0 z
EndSpiro
EndSplineSet
        EndChar
StartChar: £
Encoding: 163 163 0
Width: 433
InSpiro: 1
        Flags: H
        LayerCount: 2
        Back
        SplineSet
409 530 m 0
404 530 l 0
409 546 410 564 404 581 c 0
399 598 389 613 375 624 c 0
360 634 342 640 324 641 c 0
307 641 289 637 273 630 c 0
247 617 226 596 211 571 c 0
196 547 186 519 180 492 c 0
167 439 161 385 154 332 c 0
109 30 l 0
104 30 l 0
149 332 l 0
157 386 162 440 176 494 c 0
183 522 192 549 207 574 c 0
223 598 244 620 270 633 c 0
286 641 305 645 324 645 c 0
343 644 361 638 377 628 c 0
391 617 403 601 409 584 c 0
414 566 414 547 409 530 c 0
Z
30 30 m 0
30 34 l 0
334 34 l 0
334 30 l 0
30 30 l 0
Z
75 330 m 0
75 334 l 0
229 334 l 0
229 330 l 0
75 330 l 0
Z
Spiro
409 530 v
404 530 v
375 624 c
273 630 c
180 492 c
154 332 [
109 30 v
104 30 v
149 332 ]
176 494 c
270 633 c
377 628 c
30 30 v
30 34 v
334 34 v
334 30 v
75 330 v
75 334 v
229 334 v
229 330 v
0 0 z
EndSpiro
EndSplineSet
        Fore
        SplineSet
436 500 m 0
373 500 l 0
383 512 388 528 387 544 c 0
387 559 380 575 370 587 c 0
359 598 345 605 330 608 c 0
314 610 299 608 285 603 c 0
260 593 241 573 229 550 c 0
216 528 209 502 205 477 c 0
196 428 192 378 185 330 c 0
136 0 l 0
73 0 l 0
122 330 l 0
130 389 137 448 155 506 c 0
164 536 176 565 193 591 c 0
211 617 234 640 262 656 c 0
285 669 312 676 339 675 c 0
366 673 393 664 414 647 c 0
434 629 448 604 452 577 c 0
456 550 450 522 436 500 c 0
Z
-1 0 m 0
8 60 l 0
370 60 l 0
361 0 l 0
-1 0 l 0
Z
44 300 m 0
53 360 l 0
265 360 l 0
256 300 l 0
44 300 l 0
Z
Spiro
436 500 v
373 500 v
370 587 c
285 603 c
205 477 c
185 330 [
136 0 v
73 0 v
122 330 ]
155 506 c
262 656 c
414 647 c
-1 0 v
8 60 v
370 60 v
361 0 v
44 300 v
53 360 v
265 360 v
256 300 v
0 0 z
EndSpiro
EndSplineSet
        EndChar
